<svg width="50" height="40" viewBox="0 0 50 40" fill="none" xmlns="http://www.w3.org/2000/svg">
<path d="M25.7031 33.8281L42.7344 30.4688C43.2812 30.3125 43.75 29.8438 43.75 29.2188V2.65625C43.75 1.875 43.0469 1.32812 42.2656 1.40625L25.625 3.75V33.9062C25.625 33.9062 25.625 33.9062 25.7031 33.8281ZM24.375 33.9062V3.75L7.65625 1.40625C6.875 1.32812 6.25 1.875 6.25 2.65625V29.2188C6.25 29.8438 6.64062 30.3125 7.1875 30.4688L24.2188 33.8281C24.2969 33.9062 24.2969 33.9062 24.375 33.9062ZM42.1094 0.15625C43.5938 0 45 1.17188 45 2.65625V29.2188C45 30.4688 44.1406 31.4844 42.9688 31.7188L25.9375 35.0781C25.3125 35.2344 24.6094 35.2344 23.9844 35.0781L6.95312 31.7188C5.78125 31.4844 5 30.3906 5 29.2188V2.65625C5 1.17188 6.32812 0 7.8125 0.15625L25 2.5L42.1094 0.15625ZM0 5.15625C0 3.75 1.09375 2.65625 2.5 2.65625V3.90625C1.79688 3.90625 1.25 4.45312 1.25 5.15625V32.7344C1.25 33.3594 1.64062 33.8281 2.1875 33.9844L24.2188 38.3594C24.6875 38.4375 25.2344 38.4375 25.7031 38.3594L47.7344 33.9844C48.2812 33.8281 48.75 33.3594 48.75 32.7344V5.15625C48.75 4.45312 48.125 3.90625 47.5 3.90625V2.65625C48.8281 2.65625 50 3.75 50 5.15625V32.7344C50 33.9062 49.1406 34.9219 47.9688 35.1562L25.9375 39.6094C25.3125 39.6875 24.6094 39.6875 23.9844 39.6094L1.95312 35.1562C0.78125 34.9219 0 33.9062 0 32.7344V5.15625Z" fill="black"/>
</svg>
