<svg width="30" height="40" viewBox="0 0 30 40" fill="none" xmlns="http://www.w3.org/2000/svg">
<path d="M5 38.75H25C27.0312 38.75 28.75 37.1094 28.75 35V10.8594C28.75 9.84375 28.2812 8.90625 27.5781 8.20312L21.7969 2.42188C21.0938 1.71875 20.1562 1.25 19.1406 1.25H5C2.89062 1.25 1.25 2.96875 1.25 5V35C1.25 37.1094 2.89062 38.75 5 38.75ZM25 40H5C2.1875 40 0 37.8125 0 35V5C0 2.26562 2.1875 0 5 0H19.1406C20.4688 0 21.7188 0.546875 22.6562 1.48438L28.5156 7.34375C29.4531 8.28125 30 9.53125 30 10.8594V35C30 37.8125 27.7344 40 25 40Z" fill="black"/>
</svg>
