<svg width="40" height="36" viewBox="0 0 40 36" fill="none" xmlns="http://www.w3.org/2000/svg">
<path d="M11.875 1.75C10.0781 1.75 8.75 3.15625 8.75 4.875V31.125C8.75 32.375 8.20312 33.4688 7.42188 34.25H34.375C36.7188 34.25 38.75 32.2969 38.75 29.875V4.875C38.75 3.15625 37.3438 1.75 35.625 1.75H11.875ZM4.375 35.5C1.95312 35.5 0 33.5469 0 31.125V13C0 10.2656 2.1875 8 5 8V9.25C2.89062 9.25 1.25 10.9688 1.25 13V31.125C1.25 32.9219 2.57812 34.25 4.375 34.25C6.09375 34.25 7.5 32.9219 7.5 31.125V4.875C7.5 2.53125 9.45312 0.5 11.875 0.5H35.625C37.9688 0.5 40 2.53125 40 4.875V29.875C40 33 37.4219 35.5 34.375 35.5H4.375ZM27.5 6.125C27.5 5.8125 27.7344 5.5 28.125 5.5H34.375C34.6875 5.5 35 5.8125 35 6.125C35 6.51562 34.6875 6.75 34.375 6.75H28.125C27.7344 6.75 27.5 6.51562 27.5 6.125ZM27.5 11.125C27.5 10.8125 27.7344 10.5 28.125 10.5H34.375C34.6875 10.5 35 10.8125 35 11.125C35 11.5156 34.6875 11.75 34.375 11.75H28.125C27.7344 11.75 27.5 11.5156 27.5 11.125ZM27.5 16.125C27.5 15.8125 27.7344 15.5 28.125 15.5H34.375C34.6875 15.5 35 15.8125 35 16.125C35 16.5156 34.6875 16.75 34.375 16.75H28.125C27.7344 16.75 27.5 16.5156 27.5 16.125ZM12.5 21.125C12.5 20.8125 12.7344 20.5 13.125 20.5H34.375C34.6875 20.5 35 20.8125 35 21.125C35 21.5156 34.6875 21.75 34.375 21.75H13.125C12.7344 21.75 12.5 21.5156 12.5 21.125ZM12.5 26.125C12.5 25.8125 12.7344 25.5 13.125 25.5H34.375C34.6875 25.5 35 25.8125 35 26.125C35 26.5156 34.6875 26.75 34.375 26.75H13.125C12.7344 26.75 12.5 26.5156 12.5 26.125ZM14.375 6.75C13.9844 6.75 13.75 7.0625 13.75 7.375V14.875C13.75 15.2656 13.9844 15.5 14.375 15.5H23.125C23.4375 15.5 23.75 15.2656 23.75 14.875V7.375C23.75 7.0625 23.4375 6.75 23.125 6.75H14.375ZM12.5 7.375C12.5 6.35938 13.2812 5.5 14.375 5.5H23.125C24.1406 5.5 25 6.35938 25 7.375V14.875C25 15.9688 24.1406 16.75 23.125 16.75H14.375C13.2812 16.75 12.5 15.9688 12.5 14.875V7.375Z" fill="black"/>
</svg>
