<svg width="744" height="819" viewBox="0 0 744 819" fill="none" xmlns="http://www.w3.org/2000/svg">
<g clip-path="url(#clip0_239_167)">
<path d="M445.834 444.395C440.168 442.98 436.724 437.248 438.132 431.574C450.434 382.232 454.493 332.112 450.182 282.592C449.671 276.77 453.982 271.645 459.803 271.141C465.617 270.63 470.743 274.926 471.254 280.755C475.764 332.608 471.528 385.069 458.655 436.692C457.24 442.358 451.5 445.809 445.834 444.395Z" fill="#99EBFF"/>
<path d="M441.946 495.863C427.037 483.346 410.824 471.873 393.767 461.77C389.515 459.252 387.582 454.142 389.078 449.439C414.179 371.085 416.208 291.687 395.092 213.43C381.672 163.754 359.326 117.767 328.663 76.7201C325.167 72.0392 326.13 65.4177 330.804 61.9145C335.44 58.4482 342.002 59.3593 345.52 63.9365L345.609 64.055C377.872 107.242 401.388 155.637 415.512 207.904C436.991 287.502 435.702 368.196 411.705 447.898C427.14 457.497 441.857 468.155 455.544 479.642C460.048 483.42 460.596 490.071 456.848 494.544C453.093 499.018 446.42 499.596 441.946 495.848V495.863Z" fill="#99EBFF"/>
<path d="M424.993 537.184C400.41 514.86 372.591 496.47 342.321 482.531C337.181 480.168 334.811 474.154 336.959 468.91C370.288 387.661 376.109 305.419 354.275 224.465C328.974 130.721 267.159 50.6566 180.911 1.4921C175.511 -1.59642 170.201 -4.44054 165.135 -6.95135C159.891 -9.55845 157.765 -15.8984 160.365 -21.1274C162.965 -26.3565 169.312 -28.4895 174.541 -25.8972C179.97 -23.2012 185.643 -20.1646 191.398 -16.8761C280.417 33.866 347.32 117.493 374.695 218.955C396.937 301.404 392.063 385.024 360.222 467.644C388.967 481.894 415.49 499.981 439.206 521.519C443.494 525.43 443.857 532.132 439.924 536.458C435.999 540.783 429.311 541.109 424.985 537.176L424.993 537.184Z" fill="#99EBFF"/>
<path d="M403.854 575.453C370.829 543.39 330.085 519.549 286.039 506.506C282.973 505.595 280.558 503.203 279.351 500.255C278.129 497.307 278.388 493.804 279.914 491.004L280.254 490.367C324.99 405.414 336.151 319.654 313.436 235.486C291.357 153.859 237.585 82.5268 159.98 38.2654C109.223 9.36518 47.9487 -6.27745 -12.5404 -5.7664C-18.3841 -5.72196 -23.1539 -10.4102 -23.2058 -16.254C-23.2576 -22.0903 -18.5618 -26.8675 -12.7181 -26.9194C51.452 -27.4527 116.496 -10.8325 170.453 19.8898C251.517 66.1213 309.88 141.298 333.855 229.968C357.097 316.099 347.098 403.555 304.155 490.093C346.817 504.706 386.168 528.807 418.593 560.277C422.793 564.358 422.882 571.039 418.816 575.231C414.749 579.423 408.054 579.527 403.862 575.453H403.854Z" fill="#99EBFF"/>
<path d="M379.117 610.523C337.181 567.402 280.973 541.472 220.847 537.509C217.077 537.258 213.721 535.028 212.048 531.621C210.381 528.229 210.648 524.2 212.751 521.067C223.55 504.958 233.675 487.997 242.829 470.68C282.424 395.482 292.431 320.061 272.559 246.5C253.45 175.449 206.337 113.338 139.056 75.0387C71.6199 36.6211 -13.2218 26.1186 -87.9166 46.9383C-115.143 54.5004 -141.207 65.699 -165.381 80.201C-170.388 83.2081 -176.891 81.5638 -179.891 76.5718C-182.898 71.5576 -181.276 65.0621 -176.262 62.0624C-150.457 46.5754 -122.638 34.6361 -93.59 26.5629C-13.5921 4.2619 77.2933 15.5124 149.514 56.6556C220.728 97.1767 272.114 163.421 292.979 240.989C314.28 319.861 303.711 400.459 261.531 480.546C254.768 493.329 247.503 505.921 239.837 518.141C298.511 525.948 352.809 553.122 394.27 595.762C398.351 599.961 398.255 606.649 394.063 610.715C389.878 614.789 383.183 614.7 379.109 610.508L379.117 610.523Z" fill="#99EBFF"/>
<path d="M351.068 642.378C327.012 616.841 296.526 597.991 262.893 587.851C222.424 575.69 179.837 576.497 139.752 590.185C134.168 592.103 128.154 593.414 121.858 594.066C117.414 594.532 113.163 592.155 111.223 588.126C109.289 584.096 110.097 579.282 113.237 576.105C150.418 538.561 181.414 496.455 205.367 450.964C239.844 385.542 248.717 320.469 231.741 257.558C214.862 195.098 173.63 143.416 118.103 111.797C60.273 78.8679 -12.4961 69.8541 -76.5551 87.6742C-114.565 98.2803 -149.383 116.737 -180.054 142.512C-182.705 144.734 -186.275 145.527 -189.608 144.63C-192.949 143.727 -195.637 141.253 -196.807 137.994C-201.977 123.603 -208.762 109.879 -216.968 97.1916C-220.138 92.2884 -218.731 85.7411 -213.828 82.5637C-208.917 79.3937 -202.348 80.8009 -199.2 85.704C-192.749 95.6806 -187.09 106.235 -182.305 117.219C-152.139 94.2068 -118.55 77.4384 -82.2285 67.2988C-12.8442 47.99 65.9612 57.7518 128.576 93.4142C189.88 128.321 234.067 185.063 252.169 252.04C270.581 320.283 261.131 390.527 224.09 460.822C204.7 497.655 180.873 532.347 153.047 564.321C191.302 555.1 230.986 556.174 268.996 567.602C306.17 578.808 339.884 599.65 366.474 627.884C370.48 632.091 370.28 638.823 366.022 642.83C361.77 646.837 355.075 646.637 351.075 642.386L351.068 642.378Z" fill="#99EBFF"/>
<path d="M319.946 671.086C277.403 626.18 212.062 610.138 153.477 630.209C119.103 641.964 78.2932 637.957 44.3268 619.492C39.0312 616.626 34.054 613.449 29.5435 610.071C26.8845 608.079 25.3143 604.953 25.3143 601.62C25.3069 598.295 26.8697 595.162 29.5286 593.155C87.2106 549.723 135.072 493.744 167.927 431.241C197.264 375.573 204.997 320.832 190.909 268.542C177.363 218.288 144.019 175.219 97.1872 148.563C48.8893 121.048 -11.8071 113.523 -65.1785 128.432C-123.112 144.542 -171.869 182.293 -210.095 240.619C-212.835 244.804 -218.138 246.492 -222.804 244.67C-227.455 242.841 -230.203 237.997 -229.374 233.057C-222.923 194.898 -230.514 155.762 -250.771 122.855C-253.83 117.878 -252.282 111.368 -247.305 108.309C-242.328 105.25 -235.832 106.776 -232.759 111.775C-216.398 138.357 -207.332 168.524 -206.125 199.32C-168.677 153.281 -123.305 122.648 -70.8668 108.057C-12.1775 91.6738 54.5553 99.9394 107.645 130.188C159.646 159.784 196.383 207.615 211.322 263.038C226.846 320.654 218.536 380.558 186.628 441.091C154.625 501.958 109.015 556.892 54.185 600.776C54.259 600.82 54.3331 600.857 54.4072 600.894C83.2778 616.589 117.748 620.063 146.618 610.19C213.01 587.444 287.068 605.627 335.292 656.525C339.336 660.798 339.129 667.457 334.885 671.479C330.648 675.5 323.953 675.315 319.938 671.079L319.946 671.086Z" fill="#99EBFF"/>
<path d="M286.594 697.468C255.013 666.264 209.248 655.829 167.156 670.227C121.784 685.781 68.309 680.715 24.1069 656.666C4.77585 646.126 -11.2074 632.75 -23.3837 616.907C-28.1017 610.767 -32.2494 604.22 -35.6934 597.473C-38.2116 592.54 -36.4933 586.496 -31.7531 583.622C36.1129 542.487 93.743 481.375 130.516 411.547C154.706 365.582 161.276 321.18 150.062 279.585C138.975 238.767 112.045 205.742 76.2266 185.329C37.5349 163.302 -11.0815 157.266 -53.832 169.183C-106.566 183.885 -154.442 224.621 -185.187 280.94C-193.215 295.649 -203.199 313.951 -224.575 320.202C-242.261 325.387 -266.466 321.868 -278.487 305.641C-290.678 288.998 -284.286 266.342 -277.339 248.425C-264.703 216.259 -267.48 178.923 -284.775 148.556C-287.671 143.475 -285.893 137.024 -280.82 134.128C-275.739 131.239 -269.265 133.032 -266.392 138.083C-245.965 173.953 -242.698 218.096 -257.63 256.113C-260.274 262.942 -268.332 283.71 -261.422 293.131C-255.571 301.189 -240.795 302.908 -230.515 299.901C-218.464 296.375 -212.095 286.095 -203.755 270.8C-170.292 209.497 -117.721 165.035 -59.5127 148.808C-11.4518 135.409 43.2009 142.186 86.692 166.954C127.991 190.477 158.069 228.391 170.482 274.059C183.14 320.987 175.985 370.566 149.233 421.405C112.282 491.567 55.2587 553.315 -12.0444 596.273C-1.30491 613.145 14.3821 627.284 34.2168 638.09C73.301 659.354 120.429 663.887 160.298 650.222C210.04 633.209 264.123 645.548 301.459 682.433C305.562 686.506 305.658 693.239 301.548 697.387C297.445 701.542 290.742 701.579 286.587 697.475L286.594 697.468Z" fill="#99EBFF"/>
<path d="M-468.753 340.044C-462.353 368.789 -450.414 395.208 -433.223 418.605C-432.387 419.761 -431.535 420.864 -430.69 421.96C-389.451 475.613 -319.741 509.343 -244.172 512.194C-242.646 512.253 -241.128 512.313 -239.595 512.32C-236.277 512.335 -233.218 513.912 -231.173 516.556C-229.189 519.208 -228.559 522.645 -229.477 525.829C-237.773 554.596 -238.062 586.17 -230.314 617.152C-219.782 659.428 -200.97 698.394 -174.402 732.96C-146.006 769.911 -109.832 800.5 -66.882 823.875C-31.6566 843.036 6.6944 856.346 47.1118 863.434C49.83 863.915 52.1112 865.382 53.6666 867.403C55.4071 869.67 56.2293 872.632 55.7034 875.677C54.6961 881.424 49.2153 885.275 43.4604 884.268C0.784 876.788 -39.7445 862.723 -76.9919 842.451C-122.557 817.646 -160.967 785.147 -191.171 745.84C-219.523 708.948 -239.595 667.368 -250.838 622.262C-258.348 592.236 -259.066 561.618 -253.03 532.91C-331.695 527.8 -403.931 491.508 -447.474 434.84C-448.436 433.589 -449.392 432.337 -450.31 431.07C-469.212 405.34 -482.366 376.262 -489.402 344.629C-490.668 338.926 -487.076 333.275 -481.373 332.008C-475.67 330.734 -470.019 334.326 -468.753 340.029V340.044Z" fill="#99EBFF"/>
<path d="M-300.054 164.865C-288.596 188.699 -287.508 216.392 -297.069 240.812C-302.158 253.928 -313.053 296.331 -296.988 318.232L-296.395 319.002C-286.019 332.504 -262.444 342.185 -237.714 343.096C-216.775 343.896 -198.585 338.378 -190.26 328.683C-185.201 322.794 -178.98 312.01 -173.477 302.478C-168.692 294.22 -163.53 285.406 -157.693 276.444C-128.038 230.776 -91.1754 201.55 -48.1435 189.573C-10.7332 179.13 31.8321 184.403 65.7318 203.69C97.6168 221.792 120.436 250.944 129.606 285.088C144.433 340.015 119.851 386.453 111.786 401.689C74.664 472.265 15.9599 532.695 -53.454 571.824C-56.1796 573.379 -58.9348 574.89 -61.8012 576.46C-70.9556 581.563 -59.6385 575.238 -65.5415 578.534C-60.6013 597.065 -52.069 614.308 -40.1593 629.802C-26.1684 648.007 -7.94832 663.294 13.9972 675.241C63.3543 702.082 123.169 707.704 174 690.276C205.819 679.359 241.422 686.181 266.908 708.074C271.322 711.852 271.848 718.555 268.041 722.991C264.234 727.42 257.553 727.924 253.124 724.117C233.312 707.097 205.619 701.794 180.866 710.289C124.525 729.598 58.3697 723.443 3.8947 693.824C-20.6579 680.455 -41.1221 663.257 -56.9202 642.697C-71.0963 624.255 -81.0878 603.635 -86.6649 581.282C-88.3239 574.253 -88.7757 567.624 -82.6061 563.929C-79.6212 562.151 -75.681 559.973 -72.0222 557.951C-69.1855 556.396 -66.5413 554.944 -63.875 553.426C2.08011 516.253 57.8216 458.867 93.0914 391.823C100.209 378.388 121.858 337.489 109.201 290.591C101.527 261.987 82.0706 237.286 55.296 222.088C26.1884 205.527 -10.3406 200.994 -42.4405 209.963C-80.3693 220.518 -113.165 246.766 -139.94 287.991C-145.51 296.546 -150.516 305.085 -155.146 313.084C-162.582 325.972 -168.3 335.622 -174.195 342.481C-186.816 357.168 -210.857 365.308 -238.484 364.241C-269.613 363.101 -298.921 350.406 -313.142 331.904L-313.875 330.941C-340.286 294.946 -317 233.775 -316.756 233.131C-309.312 214.141 -310.171 192.595 -319.096 174.042C-321.629 168.776 -319.415 162.458 -314.149 159.925C-308.883 157.392 -302.558 159.643 -300.032 164.872L-300.054 164.865Z" fill="#99EBFF"/>
<path d="M0.620973 830.074C-4.92651 828.245 -7.94099 822.268 -6.11158 816.721C-4.28216 811.173 1.69492 808.159 7.24241 809.981C38.0461 820.135 70.1089 825.794 102.527 826.801C105.823 826.904 108.727 828.504 110.586 830.934C112.022 832.8 112.845 835.163 112.771 837.703C112.593 843.54 107.712 848.124 101.868 847.946C67.413 846.872 33.3504 840.858 0.620973 830.082V830.074Z" fill="#99EBFF"/>
<path d="M-334.332 193.862C-331.762 204.394 -332.502 215.326 -336.487 225.554C-336.768 226.273 -364.61 297.642 -330.954 343.466C-313.134 367.811 -277.975 383.906 -239.321 385.365C-204.799 386.713 -175.21 376.099 -158.153 356.257C-150.546 347.369 -143.606 335.348 -136.726 323.454C-132.222 315.699 -127.564 307.678 -122.239 299.523C-98.3154 262.735 -69.5633 239.449 -36.7747 230.317C-9.92602 222.843 20.5815 226.643 44.8156 240.478C67.1241 253.166 82.5741 273.06 88.7882 296.123C98.1278 330.682 85.0479 361.671 74.3825 381.987C40.9346 445.469 -11.8665 499.81 -74.1924 534.947C-76.8217 536.473 -79.5399 537.961 -82.3396 539.472C-90.8052 544.116 -99.5671 548.923 -103.344 552.974C-108.114 558.055 -110.951 571.194 -107.151 586.481C-93.9456 639.468 -58.098 684.181 -6.20052 712.385C53.3331 744.788 125.828 751.469 187.747 730.249C201.678 725.502 217.054 726.805 229.927 733.812C235.06 736.597 236.956 743.026 234.163 748.158C231.371 753.284 224.95 755.18 219.817 752.388C212.003 748.136 203.041 747.381 194.583 750.262C127.176 773.363 48.3337 766.141 -16.3104 730.96C-73.4666 699.897 -113.017 650.392 -127.675 591.584C-132.882 570.646 -129.386 549.804 -118.78 538.502C-112.699 531.999 -102.893 526.615 -92.2939 520.808C-89.7831 519.445 -87.2353 518.053 -84.6726 516.571C-25.7463 483.346 24.0996 432.041 55.6736 372.129C64.6725 354.983 75.7823 329.016 68.3758 301.627C63.5912 283.866 51.4667 268.579 34.3502 258.846C14.8933 247.737 -9.57048 244.685 -31.0938 250.684C-58.772 258.395 -83.4728 278.703 -104.515 311.062C-109.551 318.773 -114.069 326.549 -118.572 334.304C-125.771 346.762 -133.208 359.642 -142.095 370.026C-163.397 394.808 -199.133 408.103 -240.128 406.503C-285.071 404.807 -326.318 385.505 -348.004 355.983C-388.525 300.812 -357.47 221.088 -356.159 217.792C-353.781 211.711 -353.344 205.164 -354.877 198.868C-356.262 193.195 -352.781 187.47 -347.101 186.092C-341.427 184.707 -335.717 188.188 -334.324 193.862H-334.332Z" fill="#99EBFF"/>
<path d="M-384.311 238.39C-391.058 268.001 -397.532 324.283 -365.061 368.507C-339.65 403.222 -292.159 425.701 -240.965 427.663C-193.437 429.478 -151.553 413.502 -126.06 383.831C-116.165 372.292 -108.499 359.101 -100.382 345.125C-96.0564 337.681 -91.5903 329.979 -86.7612 322.572C-68.3931 294.294 -48.3288 277.437 -25.413 271.052C-9.23714 266.557 9.1977 268.867 23.8922 277.229C56.4883 295.783 54.3256 329.208 36.9425 362.271C7.25718 418.635 -39.6261 466.896 -95.0491 498.151C-97.5896 499.595 -100.167 501.01 -102.744 502.425C-114.617 508.95 -125.831 515.112 -134.17 524.007C-152.901 544.005 -153.694 574.683 -148.184 596.732C-113.158 737.256 39.3719 801.633 160.587 780.71C166.349 779.718 171.815 783.584 172.808 789.331C173.8 795.086 169.941 800.559 164.187 801.552C95.2393 813.447 20.5593 800.426 -40.6926 765.823C-106.107 728.872 -151.561 670.634 -168.707 601.85C-177.447 566.832 -170.129 531.458 -149.598 509.542C-138.955 498.196 -125.727 490.915 -112.928 483.886C-110.432 482.516 -107.936 481.146 -105.455 479.739C-53.5059 450.438 -9.58526 405.221 18.2336 352.428C29.973 330.09 35.402 308.129 13.4342 295.612C3.67984 290.057 -9.02977 288.45 -19.7322 291.428C-37.456 296.375 -53.5726 310.329 -69.0226 334.111C-73.5628 341.081 -77.8956 348.539 -82.0803 355.753C-90.3164 369.937 -98.8339 384.602 -110.003 397.615C-139.733 432.211 -187.757 450.868 -241.765 448.801C-299.247 446.602 -353.092 420.642 -382.104 381.032C-419.551 330.03 -412.478 266.831 -404.923 233.694C-403.627 227.998 -397.961 224.436 -392.258 225.732C-386.57 227.021 -382.992 232.694 -384.296 238.39H-384.311Z" fill="#99EBFF"/>
</g>
<defs>
<clipPath id="clip0_239_167">
<rect width="744" height="819" fill="white" transform="matrix(-1 0 0 1 744 0)"/>
</clipPath>
</defs>
</svg>
