<svg width="723" height="486" viewBox="0 0 723 486" fill="none" xmlns="http://www.w3.org/2000/svg">
<g clip-path="url(#clip0_251_270)">
<mask id="mask0_251_270" style="mask-type:alpha" maskUnits="userSpaceOnUse" x="-332" y="0" width="1055" height="486">
<path d="M-332 0H480C614.205 0 723 108.795 723 243V243C723 377.205 614.205 486 480 486H-332V0Z" fill="#FFE099"/>
</mask>
<g mask="url(#mask0_251_270)">
<path d="M32.8044 199.316C39.0208 200.868 42.7993 207.158 41.2554 213.382C27.7581 267.518 23.3051 322.506 28.0344 376.836C28.5951 383.223 23.8658 388.847 17.4788 389.399C11.0999 389.96 5.4767 385.247 4.91601 378.852C-0.032718 321.962 4.61535 264.405 18.7383 207.767C20.2904 201.551 26.588 197.764 32.8044 199.316Z" fill="#C9C9FF"/>
<path d="M37.0705 142.849C53.4281 156.582 71.2159 169.169 89.9301 180.253C94.5944 183.016 96.7153 188.623 95.0738 193.783C67.5348 279.748 65.3083 366.858 88.4755 452.717C103.2 507.218 127.716 557.672 161.357 602.707C165.193 607.842 164.137 615.107 159.009 618.95C153.922 622.753 146.723 621.754 142.863 616.732L142.765 616.602C107.368 569.219 81.5684 516.124 66.0722 458.779C42.5068 371.449 43.9207 282.917 70.2489 195.473C53.3144 184.942 37.168 173.248 22.1512 160.645C17.2106 156.501 16.6093 149.204 20.7211 144.296C24.8409 139.387 32.1624 138.754 37.0705 142.865V142.849Z" fill="#C9C9FF"/>
<path d="M55.6708 97.5139C82.641 122.006 113.162 142.182 146.373 157.476C152.012 160.068 154.613 166.666 152.256 172.419C115.689 261.561 109.302 351.792 133.258 440.609C161.016 543.46 228.836 631.302 323.463 685.242C329.386 688.63 335.213 691.751 340.771 694.506C346.524 697.366 348.856 704.322 346.004 710.059C343.152 715.796 336.188 718.136 330.451 715.292C324.495 712.334 318.27 709.002 311.956 705.394C214.29 649.723 140.888 557.973 110.854 446.655C86.452 356.196 91.7989 264.454 126.733 173.809C95.1956 158.174 66.0965 138.331 40.0771 114.7C35.3721 110.41 34.9739 103.056 39.2888 98.3103C43.5956 93.5647 50.9334 93.2071 55.6789 97.522L55.6708 97.5139Z" fill="#C9C9FF"/>
<path d="M78.8624 55.5272C115.096 90.7046 159.797 116.862 208.122 131.172C211.487 132.172 214.136 134.796 215.46 138.03C216.801 141.264 216.517 145.108 214.843 148.18L214.469 148.879C165.388 242.084 153.142 336.174 178.064 428.518C202.288 518.074 261.283 596.336 346.427 644.897C402.114 676.604 469.34 693.766 535.705 693.206C542.117 693.157 547.35 698.301 547.407 704.712C547.464 711.115 542.312 716.357 535.9 716.413C465.497 716.998 394.134 698.764 334.937 665.057C245.998 614.335 181.965 531.856 155.661 434.572C130.162 340.075 141.132 244.123 188.246 149.179C141.441 133.147 98.2673 106.705 62.6917 72.1774C58.0843 67.6999 57.9868 60.3703 62.4479 55.771C66.9091 51.1717 74.255 51.0579 78.8543 55.5272H78.8624Z" fill="#C9C9FF"/>
<path d="M106.003 17.0506C152.012 64.3601 213.681 92.8091 279.647 97.1565C283.783 97.4328 287.464 99.8787 289.301 103.617C291.129 107.338 290.837 111.759 288.529 115.196C276.681 132.87 265.573 151.479 255.529 170.477C212.088 252.98 201.11 335.727 222.912 416.435C243.877 494.387 295.566 562.532 369.383 604.551C443.37 646.7 536.453 658.223 618.403 635.381C648.274 627.084 676.87 614.798 703.393 598.887C708.886 595.588 716.021 597.392 719.312 602.869C722.611 608.37 720.831 615.497 715.33 618.788C687.019 635.779 656.498 648.878 624.628 657.736C536.859 682.203 437.145 669.86 357.909 624.72C279.777 580.263 223.399 507.584 200.508 422.48C177.138 335.947 188.734 247.52 235.011 159.653C242.43 145.628 250.402 131.814 258.812 118.406C194.438 109.841 134.867 80.027 89.3774 33.2457C84.9 28.6383 85.0056 21.3005 89.6049 16.8393C94.1961 12.37 101.542 12.4675 106.011 17.0668L106.003 17.0506Z" fill="#C9C9FF"/>
<path d="M1090.31 121.38C1046.79 71.7706 988.778 33.221 922.567 9.89938C920.405 9.13554 918.561 7.77848 917.22 6.02327C916.099 4.56059 915.319 2.82163 914.994 0.944532C913.531 -7.44148 911.759 -15.7868 909.712 -23.921C893.525 -88.9613 864.58 -148.923 823.69 -202.132C792.381 -242.876 754.79 -278.654 711.966 -308.477C706.716 -312.133 705.416 -319.365 709.073 -324.631C712.73 -329.889 719.97 -331.181 725.227 -327.516C770.01 -296.328 809.323 -258.9 842.087 -216.271C884.936 -160.511 915.27 -97.6805 932.229 -29.5441C933.862 -23.0434 935.333 -16.3963 936.633 -9.69238C1003.96 15.1488 1063.02 55.0799 1107.77 106.079C1112.05 110.93 1111.51 118.227 1106.7 122.452C1101.88 126.678 1094.55 126.198 1090.33 121.38H1090.31Z" fill="#C9C9FF"/>
<path d="M136.776 -17.8995C163.17 10.1189 196.616 30.7996 233.516 41.924C277.917 55.2669 324.641 54.3812 368.619 39.3643C374.746 37.2597 381.344 35.8214 388.251 35.1063C393.127 34.5944 397.791 37.2028 399.92 41.6234C402.041 46.0439 401.155 51.3258 397.71 54.8118C356.917 96.0024 322.91 142.199 296.631 192.108C258.804 263.885 249.069 335.28 267.694 404.302C286.213 472.829 331.451 529.532 392.371 564.221C455.819 600.35 535.657 610.239 605.938 590.688C647.641 579.051 685.841 558.801 719.491 530.523C722.4 528.085 726.316 527.216 729.973 528.199C733.638 529.19 736.588 531.904 737.872 535.48C743.544 551.269 750.987 566.326 759.991 580.246C763.468 585.625 761.925 592.809 756.545 596.295C751.158 599.773 743.95 598.229 740.496 592.849C733.419 581.904 727.21 570.324 721.961 558.273C688.864 583.521 652.013 601.918 612.163 613.042C536.038 634.227 449.578 623.517 380.881 584.39C313.622 546.092 265.143 483.839 245.283 410.356C225.081 335.483 235.45 258.416 276.088 181.293C297.362 140.882 323.503 102.82 354.033 67.7403C312.062 77.8571 268.523 76.6789 226.82 64.1405C186.036 51.8459 149.047 28.9793 119.874 -1.99691C115.478 -6.61247 115.698 -13.999 120.37 -18.3951C125.034 -22.7913 132.38 -22.5719 136.768 -17.9076L136.776 -17.8995Z" fill="#C9C9FF"/>
<path d="M1082.75 188.127C1079.59 183.17 1076.02 177.986 1072.16 172.736C1070.8 170.892 1069.41 169.12 1068.09 167.365C1023.75 109.67 957.346 66.4239 881.124 45.597C878.622 44.9145 876.493 43.4355 874.981 41.4772C873.648 39.7382 872.803 37.6336 872.617 35.3502C871.316 19.3745 868.659 3.21193 864.726 -12.6744C850.059 -71.5065 823.869 -125.723 786.887 -173.845C747.793 -224.722 698.257 -266.684 639.645 -298.579C633.258 -302.065 627.309 -305.128 621.467 -307.94C615.689 -310.711 613.259 -317.659 616.055 -323.428C618.834 -329.206 625.773 -331.627 631.543 -328.848C637.735 -325.866 644.024 -322.632 650.745 -318.959C712.201 -285.512 764.2 -241.437 805.285 -187.984C844.216 -137.327 871.796 -80.2338 887.243 -18.2813C890.827 -3.83332 893.419 10.8341 894.987 25.4121C972.826 48.3436 1040.6 93.516 1086.48 153.226C1087.91 155.087 1089.38 156.988 1090.84 158.971C1095.02 164.651 1098.88 170.258 1102.31 175.653C1105.76 181.057 1104.17 188.224 1098.77 191.67C1093.36 195.115 1086.16 193.547 1082.75 188.127Z" fill="#C9C9FF"/>
<path d="M170.922 -49.3956C217.597 -0.127727 289.285 17.4732 353.561 -4.54826C391.274 -17.4442 436.048 -13.048 473.314 7.21004C479.124 10.3548 484.585 13.8408 489.533 17.5463C492.451 19.7322 494.173 23.1613 494.173 26.818C494.181 30.4666 492.467 33.9039 489.55 36.106C426.264 83.7568 373.754 145.173 337.707 213.748C305.52 274.823 297.037 334.882 312.493 392.252C327.355 447.386 363.938 494.639 415.319 523.885C468.308 554.073 534.901 562.328 593.457 545.971C657.018 528.297 710.511 486.879 752.45 422.887C755.456 418.295 761.274 416.443 766.394 418.442C771.497 420.449 774.512 425.763 773.601 431.183C766.524 473.048 774.853 515.986 797.077 552.09C800.434 557.55 798.735 564.693 793.275 568.049C787.814 571.405 780.687 569.731 777.315 564.246C759.365 535.082 749.419 501.985 748.094 468.197C707.009 518.708 657.229 552.317 599.697 568.325C535.307 586.3 462.092 577.232 403.845 544.045C346.792 511.574 306.487 459.096 290.097 398.289C273.065 335.077 282.183 269.354 317.189 202.941C352.302 136.161 402.342 75.8908 462.498 27.7444C462.417 27.6956 462.336 27.655 462.254 27.6144C430.579 10.3954 392.761 6.58433 361.086 17.4163C288.245 42.3712 206.993 22.4219 154.085 -33.4199C149.648 -38.1086 149.875 -45.4138 154.532 -49.8262C159.18 -54.2387 166.526 -54.0355 170.93 -49.3875L170.922 -49.3956Z" fill="#C9C9FF"/>
<path d="M1064.81 252.355C1056.78 233.966 1046.65 216.414 1034.71 200.186C1033.58 198.65 1032.46 197.196 1031.28 195.652C986.705 137.656 915.717 96.669 836.521 83.188C830.727 82.2048 826.575 77.0366 826.883 71.1697C828.102 47.0274 825.664 22.5925 819.651 -1.46849C806.552 -54.0517 783.141 -102.531 750.077 -145.558C714.948 -191.267 670.336 -229.029 617.501 -257.778C593.318 -270.918 567.535 -281.953 540.857 -290.583C538.541 -291.33 536.615 -292.744 535.234 -294.548C532.983 -297.474 532.17 -301.423 533.389 -305.201C535.364 -311.296 541.905 -314.644 548 -312.669C576.026 -303.601 603.134 -291.997 628.585 -278.166C684.289 -247.856 731.354 -207.998 768.474 -159.698C803.497 -114.119 828.297 -62.7709 842.168 -7.08353C847.897 15.8155 850.644 39.0558 850.376 62.1498C931.254 78.2555 1003.47 121.388 1049.67 181.512C1050.92 183.129 1052.18 184.779 1053.4 186.445C1066.35 204.046 1077.33 223.093 1086.06 243.059C1088.63 248.934 1085.95 255.768 1080.08 258.344C1074.21 260.911 1067.37 258.23 1064.8 252.355H1064.81Z" fill="#C9C9FF"/>
<path d="M207.513 -78.3405C242.162 -44.1057 292.373 -32.6562 338.553 -48.4531C388.332 -65.5177 447.002 -59.9595 495.498 -33.5745C516.707 -22.0112 534.243 -7.33566 547.602 10.0458C552.778 16.7823 557.329 23.9656 561.107 31.3684C563.87 36.7803 561.985 43.4111 556.784 46.564C482.326 91.6957 419.097 158.743 378.752 235.355C352.212 285.785 345.005 334.5 357.307 380.136C369.472 424.918 399.018 461.152 438.315 483.547C480.766 507.714 534.104 514.336 581.008 501.262C638.865 485.131 691.391 440.439 725.122 378.649C733.93 362.51 744.884 342.431 768.336 335.573C787.741 329.885 814.296 333.744 827.485 351.548C840.86 369.807 833.848 394.665 826.225 414.322C812.363 449.613 815.41 490.576 834.384 523.892C837.561 529.467 835.611 536.545 830.045 539.722C824.47 542.891 817.368 540.924 814.215 535.383C791.804 496.028 788.22 447.598 804.602 405.887C807.503 398.395 816.344 375.609 808.763 365.273C802.343 356.432 786.132 354.547 774.853 357.846C761.632 361.714 754.644 372.993 745.494 389.773C708.781 457.032 651.102 505.812 587.24 523.616C534.511 538.316 474.549 530.881 426.833 503.707C381.523 477.899 348.523 436.302 334.904 386.198C321.017 334.711 328.867 280.316 358.218 224.539C398.758 147.562 461.32 79.8155 535.161 32.6848C523.378 14.1738 506.167 -1.33869 484.406 -13.1945C441.525 -36.5242 389.82 -41.4973 346.077 -26.5049C291.503 -7.83948 232.167 -21.3774 191.204 -61.8448C186.702 -66.3141 186.597 -73.7006 191.107 -78.2511C195.608 -82.8098 202.963 -82.8504 207.521 -78.3486L207.513 -78.3405Z" fill="#C9C9FF"/>
<path d="M1036.23 313.803C1029.21 282.266 1016.11 253.281 997.253 227.611C996.335 226.343 995.4 225.133 994.474 223.93C949.228 165.065 872.746 128.06 789.837 124.931C788.163 124.866 786.497 124.801 784.815 124.793C781.175 124.777 777.819 123.046 775.576 120.145C773.398 117.236 772.708 113.465 773.715 109.971C782.816 78.4099 783.133 43.7688 774.633 9.77781C763.078 -36.6053 742.438 -79.3561 713.29 -117.28C682.135 -157.821 642.448 -191.381 595.325 -217.027C556.678 -238.048 514.602 -252.651 470.258 -260.427C467.276 -260.956 464.773 -262.565 463.067 -264.783C461.157 -267.269 460.255 -270.52 460.832 -273.86C461.937 -280.165 467.951 -284.391 474.265 -283.286C521.086 -275.079 565.552 -259.647 606.417 -237.406C656.408 -210.193 698.55 -174.536 731.688 -131.411C762.794 -90.9356 784.815 -45.3164 797.15 4.17086C805.39 37.1136 806.178 70.7064 799.556 102.203C885.862 107.81 965.115 147.627 1012.89 209.799C1013.94 211.172 1014.99 212.545 1016 213.935C1036.74 242.165 1051.17 274.067 1058.89 308.773C1060.28 315.03 1056.34 321.23 1050.08 322.62C1043.82 324.018 1037.62 320.077 1036.23 313.82V313.803Z" fill="#C9C9FF"/>
<path d="M851.148 505.999C838.577 479.85 837.382 449.467 847.873 422.675C853.456 408.284 865.409 361.763 847.784 337.734L847.134 336.889C835.749 322.076 809.884 311.455 782.751 310.455C759.779 309.578 739.822 315.632 730.688 326.269C725.138 332.729 718.312 344.56 712.275 355.018C707.025 364.079 701.362 373.749 694.958 383.581C662.422 433.686 621.979 465.751 574.767 478.891C533.723 490.348 487.022 484.563 449.83 463.403C414.848 443.543 389.811 411.559 379.751 374.098C363.483 313.836 390.453 262.886 399.303 246.171C440.03 168.738 504.436 102.438 580.593 59.5087C583.584 57.8022 586.606 56.1445 589.751 54.4218C599.795 48.823 587.378 55.7626 593.855 52.1466C588.435 31.8154 579.074 12.8981 566.007 -4.1015C550.657 -24.0752 530.667 -40.8472 506.59 -53.9544C452.438 -83.403 386.813 -89.5706 331.044 -70.4501C296.135 -58.4724 257.073 -65.9565 229.112 -89.9769C224.269 -94.1211 223.692 -101.475 227.869 -106.343C232.045 -111.202 239.375 -111.755 244.234 -107.578C265.971 -88.9043 296.354 -83.086 323.511 -92.4065C385.326 -113.591 457.907 -106.838 517.674 -74.3425C544.611 -59.6751 567.063 -40.8066 584.396 -18.2488C599.949 1.98486 610.911 24.6076 617.03 49.1318C618.85 56.8434 619.346 64.1161 612.577 68.171C609.302 70.1212 604.979 72.5103 600.965 74.7287C597.853 76.4351 594.952 78.0278 592.026 79.6936C519.665 120.478 458.508 183.438 419.812 256.994C412.003 271.735 388.251 316.607 402.138 368.06C410.557 399.443 431.904 426.543 461.279 443.218C493.214 461.387 533.292 466.36 568.51 456.52C610.123 444.94 646.105 416.142 675.48 370.913C681.591 361.527 687.084 352.158 692.163 343.382C700.321 329.243 706.595 318.654 713.063 311.13C726.91 295.016 753.287 286.085 783.596 287.256C817.75 288.507 849.905 302.435 865.506 322.734L866.311 323.79C895.288 363.282 869.74 430.395 869.472 431.102C861.305 451.937 862.248 475.575 872.04 495.931C874.819 501.708 872.389 508.64 866.612 511.419C860.834 514.198 853.894 511.728 851.123 505.991L851.148 505.999Z" fill="#C9C9FF"/>
<path d="M752.125 15.3684C760.86 50.4808 759.145 85.3006 747.168 116.057C744.844 122.03 738.115 124.988 732.143 122.656C730.095 121.859 728.405 120.551 727.153 118.926C724.764 115.814 724.009 111.564 725.536 107.639C735.759 81.3758 737.165 51.4072 729.591 20.9754C708.748 -62.641 653.174 -132.695 573.125 -176.267C567.502 -179.322 565.414 -186.375 568.477 -192.007C571.541 -197.63 578.586 -199.71 584.217 -196.647C670.052 -149.922 729.681 -74.6269 752.116 15.3765L752.125 15.3684Z" fill="#C9C9FF"/>
<path d="M998.651 378.844C997.147 376.893 996.172 374.025 996.262 371.311C995.977 326.691 983.731 287.613 959.865 255.142C923.363 205.419 859.054 174.012 788.082 171.306C721.742 168.754 662.316 192.149 625.05 235.517C611.48 251.29 601.176 269.005 592.075 284.631L591.831 285.053C587.11 293.285 582.82 300.672 578.18 307.741C574.661 313.096 567.47 314.591 562.115 311.073C561.001 310.342 560.051 309.448 559.287 308.448C556.362 304.637 556.004 299.241 558.791 295.008C563.074 288.483 567.177 281.413 571.744 273.45L572.028 272.962C581.625 256.474 592.506 237.785 607.458 220.395C649.363 171.631 715.525 145.287 788.976 148.123C866.937 151.089 937.787 185.884 978.571 241.401C1005.49 278.041 1019.26 321.88 1019.48 371.709C1019.48 375.756 1017.19 380.144 1012.91 382.224C1008.06 384.589 1002.07 383.288 998.659 378.844H998.651Z" fill="#C9C9FF"/>
<path d="M888.755 474.186C885.935 462.631 886.748 450.637 891.119 439.415C891.428 438.627 921.974 360.325 885.049 310.049C865.498 283.339 826.924 265.681 784.515 264.08C746.639 262.602 714.176 274.246 695.462 296.016C687.117 305.767 679.503 318.955 671.954 332.006C667.013 340.513 661.902 349.314 656.059 358.261C629.812 398.622 598.267 424.17 562.293 434.19C532.837 442.389 499.366 438.22 472.778 423.041C448.302 409.121 431.351 387.295 424.534 361.99C414.287 324.075 428.637 290.076 440.339 267.786C477.036 198.138 534.966 138.518 603.346 99.9681C606.231 98.2942 609.213 96.6609 612.284 95.0032C621.572 89.9082 631.185 84.6344 635.33 80.1895C640.563 74.6151 643.675 60.1996 639.507 43.4275C625.018 -14.7058 585.688 -63.7623 528.749 -94.7061C463.433 -130.257 383.896 -137.587 315.962 -114.306C300.677 -109.097 283.808 -110.527 269.685 -118.215C264.054 -121.27 261.973 -128.323 265.037 -133.955C268.1 -139.578 275.146 -141.658 280.777 -138.594C289.35 -133.93 299.182 -133.101 308.462 -136.262C382.417 -161.607 468.918 -153.684 539.841 -115.086C602.55 -81.0056 645.942 -26.6916 662.024 37.8287C667.736 60.8009 663.901 83.6674 652.264 96.0677C645.593 103.202 634.834 109.11 623.206 115.481C620.451 116.976 617.656 118.503 614.844 120.129C550.194 156.582 495.506 212.871 460.865 278.602C450.992 297.413 438.803 325.903 446.929 355.953C452.178 375.439 465.48 392.211 484.26 402.889C505.607 415.077 532.447 418.425 556.061 411.843C586.428 403.384 613.528 381.103 636.614 345.6C642.139 337.141 647.096 328.609 652.037 320.101C659.935 306.433 668.094 292.302 677.845 280.909C701.215 253.72 740.423 239.134 785.4 240.889C834.709 242.75 879.962 263.926 903.755 296.316C948.213 356.847 914.14 444.315 912.702 447.931C910.094 454.602 909.614 461.786 911.296 468.693C912.816 474.917 908.997 481.199 902.764 482.71C896.54 484.23 890.274 480.41 888.747 474.186H888.755Z" fill="#C9C9FF"/>
<path d="M943.589 425.332C950.992 392.845 958.094 331.095 922.469 282.575C894.589 244.488 842.485 219.826 786.319 217.673C734.174 215.682 688.222 233.21 660.252 265.762C649.396 278.423 640.985 292.895 632.079 308.229C627.334 316.395 622.434 324.846 617.136 332.972C596.983 363.997 574.97 382.492 549.828 389.497C532.081 394.429 511.855 391.894 495.733 382.72C459.971 362.364 462.344 325.691 481.416 289.417C513.984 227.578 565.422 174.629 626.229 140.338C629.016 138.753 631.844 137.201 634.672 135.649C647.697 128.49 660 121.729 669.15 111.97C689.701 90.0298 690.57 56.3719 684.524 32.1809C646.097 -121.993 478.75 -192.624 345.76 -169.669C339.438 -168.58 333.441 -172.821 332.352 -179.127C331.264 -185.441 335.497 -191.446 341.811 -192.535C417.456 -205.585 499.39 -191.3 566.592 -153.335C638.361 -112.795 688.23 -48.9002 707.042 26.5658C716.63 64.9855 708.602 103.795 686.077 127.84C674.399 140.289 659.886 148.277 645.845 155.988C643.106 157.492 640.368 158.995 637.646 160.539C580.65 192.685 532.463 242.294 501.942 300.216C489.062 324.724 483.106 348.818 507.207 362.551C517.909 368.645 531.853 370.409 543.596 367.142C563.041 361.714 580.723 346.405 597.674 320.312C602.655 312.665 607.409 304.483 612 296.568C621.036 281.007 630.381 264.917 642.635 250.64C675.253 212.683 727.942 192.214 787.196 194.481C850.262 196.895 909.338 225.376 941.167 268.834C982.252 324.789 974.492 394.128 966.203 430.484C964.781 436.733 958.565 440.642 952.308 439.22C946.067 437.806 942.142 431.581 943.573 425.332H943.589Z" fill="#C9C9FF"/>
</g>
</g>
<defs>
<clipPath id="clip0_251_270">
<rect width="723" height="486" fill="white"/>
</clipPath>
</defs>
</svg>
