<svg width="744" height="819" viewBox="0 0 744 819" fill="none" xmlns="http://www.w3.org/2000/svg">
<g clip-path="url(#clip0_242_195)">
<path d="M298.166 455.451C303.832 456.866 307.276 462.599 305.868 468.272C293.566 517.614 289.507 567.734 293.818 617.254C294.329 623.076 290.018 628.201 284.197 628.705C278.383 629.216 273.257 624.92 272.746 619.091C268.236 567.238 272.472 514.778 285.345 463.154C286.76 457.488 292.5 454.037 298.166 455.451Z" fill="#F7B8BD"/>
<path d="M302.054 403.984C316.963 416.501 333.176 427.973 350.233 438.076C354.485 440.594 356.418 445.704 354.922 450.408C329.821 528.761 327.792 608.159 348.908 686.416C362.328 736.092 384.674 782.079 415.337 823.126C418.833 827.807 417.87 834.428 413.196 837.932C408.56 841.398 401.998 840.487 398.48 835.91L398.391 835.791C366.128 792.604 342.612 744.21 328.488 691.942C307.009 612.344 308.298 531.65 332.295 451.948C316.86 442.349 302.143 431.691 288.456 420.204C283.952 416.426 283.404 409.775 287.152 405.302C290.907 400.828 297.58 400.251 302.054 403.998V403.984Z" fill="#F7B8BD"/>
<path d="M319.007 362.663C343.59 384.986 371.409 403.376 401.679 417.315C406.819 419.678 409.189 425.692 407.041 430.936C373.712 512.185 367.891 594.427 389.725 675.381C415.026 769.125 476.841 849.19 563.089 898.354C568.489 901.443 573.799 904.287 578.865 906.798C584.109 909.405 586.235 915.745 583.635 920.974C581.035 926.203 574.688 928.336 569.459 925.743C564.03 923.047 558.357 920.011 552.602 916.722C463.583 865.98 396.68 782.353 369.305 680.891C347.063 598.442 351.937 514.822 383.778 432.202C355.033 417.952 328.51 399.865 304.794 378.327C300.506 374.417 300.143 367.714 304.076 363.388C308.001 359.063 314.689 358.737 319.015 362.67L319.007 362.663Z" fill="#F7B8BD"/>
<path d="M340.146 324.393C373.171 356.456 413.915 380.298 457.961 393.34C461.027 394.251 463.442 396.644 464.649 399.591C465.871 402.539 465.612 406.043 464.086 408.842L463.746 409.479C419.01 494.432 407.849 580.192 430.564 664.36C452.643 745.987 506.415 817.319 584.02 861.581C634.777 890.481 696.051 906.124 756.54 905.613C762.384 905.568 767.154 910.256 767.206 916.1C767.258 921.937 762.562 926.714 756.718 926.766C692.548 927.299 627.504 910.679 573.547 879.956C492.483 833.725 434.12 758.549 410.145 669.878C386.903 583.747 396.902 496.291 439.845 409.753C397.183 395.14 357.832 371.039 325.407 339.569C321.207 335.488 321.118 328.807 325.184 324.615C329.251 320.423 335.946 320.319 340.138 324.393H340.146Z" fill="#F7B8BD"/>
<path d="M364.883 289.323C406.819 332.444 463.027 358.374 523.153 362.337C526.923 362.589 530.279 364.818 531.952 368.225C533.619 371.617 533.352 375.646 531.249 378.779C520.45 394.888 510.325 411.849 501.171 429.166C461.576 504.364 451.569 579.785 471.441 653.347C490.55 724.397 537.663 786.508 604.944 824.808C672.38 863.225 757.222 873.728 831.917 852.908C859.143 845.346 885.207 834.147 909.381 819.645C914.388 816.638 920.891 818.282 923.891 823.274C926.898 828.289 925.276 834.784 920.262 837.784C894.457 853.271 866.638 865.21 837.59 873.283C757.592 895.584 666.707 884.334 594.486 843.191C523.272 802.669 471.886 736.426 451.021 658.857C429.72 579.985 440.289 499.387 482.469 419.3C489.232 406.517 496.497 393.926 504.163 381.705C445.489 373.898 391.191 346.724 349.73 304.084C345.649 299.885 345.745 293.197 349.937 289.131C354.122 285.057 360.817 285.146 364.891 289.338L364.883 289.323Z" fill="#F7B8BD"/>
<path d="M392.932 257.468C416.988 283.006 447.474 301.855 481.107 311.995C521.576 324.156 564.163 323.349 604.248 309.662C609.832 307.743 615.846 306.432 622.142 305.781C626.586 305.314 630.837 307.692 632.777 311.721C634.711 315.75 633.903 320.564 630.763 323.741C593.582 361.285 562.586 403.391 538.633 448.882C504.156 514.304 495.283 579.378 512.259 642.289C529.138 704.748 570.37 756.43 625.897 788.049C683.727 820.978 756.496 829.992 820.555 812.172C858.565 801.566 893.383 783.109 924.054 757.334C926.705 755.112 930.275 754.32 933.608 755.216C936.949 756.119 939.637 758.593 940.807 761.852C945.977 776.243 952.762 789.967 960.968 802.655C964.138 807.558 962.731 814.105 957.828 817.283C952.917 820.453 946.348 819.045 943.2 814.142C936.749 804.166 931.09 793.611 926.305 782.627C896.139 805.639 862.55 822.408 826.229 832.547C756.844 851.856 678.039 842.094 615.424 806.432C554.12 771.525 509.933 714.784 491.831 647.806C473.419 579.563 482.869 509.319 519.91 439.024C539.3 402.191 563.127 367.499 590.953 335.525C552.698 344.746 513.014 343.672 475.004 332.244C437.83 321.038 404.116 300.196 377.526 271.962C373.52 267.756 373.72 261.023 377.978 257.016C382.23 253.009 388.925 253.209 392.925 257.46L392.932 257.468Z" fill="#F7B8BD"/>
<path d="M424.054 228.76C466.597 273.666 531.938 289.708 590.523 269.637C624.897 257.883 665.707 261.889 699.673 280.354C704.969 283.22 709.946 286.398 714.457 289.775C717.115 291.767 718.686 294.893 718.686 298.226C718.693 301.551 717.13 304.684 714.471 306.692C656.789 350.123 608.928 406.102 576.073 468.606C546.736 524.273 539.003 579.015 553.091 631.305C566.637 681.558 599.981 724.627 646.813 751.283C695.111 778.798 755.807 786.323 809.179 771.414C867.112 755.305 915.869 717.554 954.095 659.227C956.835 655.043 962.138 653.354 966.804 655.176C971.455 657.005 974.203 661.849 973.374 666.789C966.923 704.948 974.514 744.084 994.771 776.991C997.83 781.968 996.282 788.479 991.305 791.537C986.328 794.596 979.832 793.071 976.759 788.071C960.398 761.489 951.332 731.322 950.125 700.526C912.677 746.565 867.305 777.198 814.867 791.789C756.177 808.172 689.445 799.907 636.355 769.659C584.354 740.062 547.617 692.231 532.678 636.808C517.154 579.192 525.464 519.288 557.372 458.755C589.375 397.888 634.985 342.954 689.815 299.07C689.741 299.026 689.667 298.989 689.593 298.952C660.722 283.257 626.252 279.784 597.382 289.657C530.99 312.402 456.932 294.219 408.708 243.321C404.664 239.048 404.871 232.389 409.115 228.368C413.352 224.346 420.047 224.531 424.062 228.768L424.054 228.76Z" fill="#F7B8BD"/>
<path d="M457.406 202.378C488.987 233.582 534.752 244.017 576.844 229.619C622.216 214.065 675.691 219.131 719.893 243.18C739.224 253.72 755.207 267.096 767.384 282.939C772.102 289.079 776.249 295.626 779.693 302.373C782.212 307.306 780.493 313.35 775.753 316.224C707.887 357.359 650.257 418.471 613.484 488.299C589.294 534.264 582.724 578.666 593.938 620.261C605.025 661.079 631.955 694.104 667.773 714.517C706.465 736.544 755.082 742.58 797.832 730.663C850.566 715.961 898.442 675.225 929.187 618.906C937.215 604.197 947.199 585.895 968.575 579.644C986.261 574.459 1010.47 577.977 1022.49 594.205C1034.68 610.848 1028.29 633.504 1021.34 651.421C1008.7 683.587 1011.48 720.923 1028.77 751.29C1031.67 756.371 1029.89 762.822 1024.82 765.718C1019.74 768.607 1013.27 766.814 1010.39 761.763C989.965 725.893 986.698 681.75 1001.63 643.733C1004.27 636.904 1012.33 616.136 1005.42 606.715C999.571 598.657 984.795 596.938 974.515 599.945C962.464 603.471 956.095 613.751 947.755 629.045C914.292 690.349 861.721 734.811 803.513 751.038C755.452 764.437 700.799 757.66 657.308 732.892C616.009 709.369 585.931 671.455 573.518 625.787C560.86 578.859 568.015 529.28 594.767 478.441C631.718 408.279 688.741 346.531 756.044 303.573C745.305 286.701 729.618 272.562 709.783 261.756C670.699 240.492 623.571 235.959 583.702 249.624C533.96 266.637 479.877 254.298 442.541 217.413C438.438 213.34 438.342 206.607 442.452 202.459C446.555 198.304 453.258 198.267 457.413 202.37L457.406 202.378Z" fill="#F7B8BD"/>
<path d="M1212.75 559.802C1206.35 531.057 1194.41 504.638 1177.22 481.241C1176.39 480.086 1175.53 478.982 1174.69 477.886C1133.45 424.233 1063.74 390.504 988.172 387.652C986.646 387.593 985.128 387.534 983.595 387.526C980.277 387.511 977.218 385.934 975.174 383.29C973.189 380.638 972.559 377.202 973.478 374.017C981.773 345.25 982.062 313.676 974.314 282.694C963.782 240.418 944.97 201.452 918.403 166.886C890.006 129.935 853.833 99.3458 810.882 75.9708C775.657 56.8102 737.306 43.5006 696.888 36.4126C694.17 35.9312 691.889 34.4647 690.334 32.4427C688.593 30.1763 687.771 27.2137 688.297 24.1696C689.304 18.4222 694.785 14.5708 700.54 15.5781C743.216 23.0586 783.745 37.1236 820.992 57.3953C866.557 82.1997 904.967 114.7 935.171 154.006C963.523 190.898 983.595 232.478 994.838 277.584C1002.35 307.61 1003.07 338.228 997.03 366.936C1075.69 372.047 1147.93 408.339 1191.47 465.006C1192.44 466.258 1193.39 467.509 1194.31 468.776C1213.21 494.506 1226.37 523.584 1233.4 555.217C1234.67 560.92 1231.08 566.572 1225.37 567.838C1219.67 569.112 1214.02 565.52 1212.75 559.817V559.802Z" fill="#F7B8BD"/>
<path d="M1044.05 734.981C1032.6 711.147 1031.51 683.454 1041.07 659.035C1046.16 645.918 1057.05 603.516 1040.99 581.615L1040.4 580.844C1030.02 567.342 1006.44 557.662 981.714 556.751C960.775 555.951 942.585 561.469 934.26 571.164C929.201 577.052 922.98 587.836 917.477 597.368C912.692 605.626 907.53 614.44 901.694 623.402C872.038 669.071 835.176 698.297 792.144 710.273C754.733 720.716 712.168 715.443 678.268 696.156C646.383 678.055 623.564 648.903 614.395 614.759C599.567 559.832 624.149 513.393 632.215 498.158C669.336 427.581 728.04 367.151 797.454 328.023C800.18 326.467 802.935 324.956 805.801 323.386C814.956 318.283 803.639 324.608 809.542 321.312C804.601 302.781 796.069 285.539 784.159 270.044C770.168 251.839 751.948 236.552 730.003 224.605C680.646 197.764 620.831 192.142 570 209.57C538.181 220.487 502.578 213.666 477.092 191.772C472.678 187.995 472.152 181.292 475.959 176.855C479.766 172.426 486.447 171.923 490.876 175.73C510.688 192.75 538.381 198.053 563.134 189.558C619.475 170.249 685.63 176.404 740.105 206.022C764.658 219.391 785.122 236.589 800.92 257.15C815.096 275.592 825.088 296.212 830.665 318.564C832.324 325.593 832.776 332.222 826.606 335.918C823.621 337.695 819.681 339.873 816.022 341.895C813.186 343.45 810.541 344.902 807.875 346.42C741.92 383.594 686.179 440.979 650.909 508.023C643.791 521.459 622.142 562.358 634.799 609.256C642.473 637.86 661.93 662.56 688.704 677.759C717.812 694.32 754.341 698.852 786.441 689.883C824.369 679.329 857.166 653.08 883.94 611.855C889.51 603.301 894.517 594.761 899.146 586.762C906.582 573.875 912.3 564.224 918.195 557.366C930.816 542.678 954.858 534.539 982.484 535.605C1013.61 536.746 1042.92 549.441 1057.14 567.942L1057.87 568.905C1084.29 604.901 1061 666.071 1060.76 666.715C1053.31 685.706 1054.17 707.251 1063.1 725.805C1065.63 731.071 1063.41 737.389 1058.15 739.922C1052.88 742.455 1046.56 740.203 1044.03 734.974L1044.05 734.981Z" fill="#F7B8BD"/>
<path d="M743.379 69.7715C748.927 71.6009 751.941 77.5779 750.112 83.1254C748.282 88.6729 742.305 91.6874 736.758 89.8654C705.954 79.711 673.891 74.0524 641.473 73.0452C638.177 72.9415 635.273 71.3417 633.414 68.9123C631.978 67.0459 631.155 64.6832 631.229 62.1428C631.407 56.3064 636.288 51.7218 642.132 51.8995C676.587 52.9735 710.65 58.9876 743.379 69.7641V69.7715Z" fill="#F7B8BD"/>
<path d="M1078.33 705.985C1075.76 695.453 1076.5 684.521 1080.49 674.292C1080.77 673.574 1108.61 602.205 1074.95 556.38C1057.13 532.035 1021.98 515.941 983.321 514.482C948.799 513.134 919.21 523.747 902.153 543.589C894.546 552.477 887.606 564.498 880.726 576.393C876.222 584.148 871.564 592.169 866.239 600.323C842.315 637.112 813.563 660.398 780.775 669.53C753.926 677.003 723.419 673.204 699.184 659.368C676.876 646.681 661.426 626.787 655.212 603.723C645.872 569.164 658.952 538.175 669.618 517.859C703.065 454.378 755.866 400.036 818.192 364.9C820.822 363.374 823.54 361.885 826.34 360.374C834.805 355.73 843.567 350.924 847.344 346.872C852.114 341.791 854.951 328.652 851.151 313.365C837.946 260.379 802.098 215.666 750.201 187.462C690.667 155.058 618.172 148.377 556.253 169.597C542.322 174.345 526.946 173.041 514.073 166.034C508.94 163.25 507.044 156.821 509.837 151.688C512.629 146.563 519.05 144.667 524.183 147.459C531.997 151.71 540.959 152.466 549.417 149.585C616.824 126.484 695.666 133.705 760.31 168.886C817.467 199.949 857.017 249.454 871.675 308.262C876.882 329.2 873.386 350.042 862.78 361.344C856.699 367.847 846.893 373.232 836.294 379.039C833.783 380.401 831.235 381.794 828.673 383.275C769.746 416.501 719.9 467.806 688.326 527.717C679.328 544.863 668.218 570.831 675.624 598.22C680.409 615.981 692.533 631.268 709.65 641C729.107 652.11 753.57 655.161 775.094 649.162C802.772 641.452 827.473 621.143 848.515 588.784C853.551 581.074 858.069 573.297 862.572 565.542C869.771 553.085 877.208 540.205 886.095 529.821C907.397 505.038 943.133 491.744 984.128 493.344C1029.07 495.04 1070.32 514.341 1092 543.863C1132.53 599.035 1101.47 678.758 1100.16 682.054C1097.78 688.135 1097.34 694.682 1098.88 700.978C1100.26 706.651 1096.78 712.377 1091.1 713.754C1085.43 715.139 1079.72 711.658 1078.32 705.985H1078.33Z" fill="#F7B8BD"/>
<path d="M1128.31 661.457C1135.06 631.845 1141.53 575.563 1109.06 531.339C1083.65 496.624 1036.16 474.146 984.965 472.183C937.437 470.368 895.553 486.344 870.06 516.015C860.165 527.554 852.499 540.745 844.382 554.721C840.056 562.165 835.59 569.868 830.761 577.274C812.393 605.552 792.329 622.409 769.413 628.794C753.237 633.29 734.802 630.979 720.108 622.617C687.512 604.064 689.674 570.638 707.057 537.575C736.743 481.212 783.626 432.951 839.049 401.695C841.59 400.251 844.167 398.836 846.744 397.421C858.617 390.896 869.831 384.734 878.17 375.839C896.901 355.841 897.694 325.163 892.184 303.114C857.158 162.59 704.628 98.2128 583.413 119.136C577.651 120.129 572.185 116.262 571.192 110.515C570.2 104.76 574.059 99.2867 579.813 98.2943C648.761 86.3994 723.441 99.42 784.693 134.023C850.107 170.974 895.561 229.212 912.707 297.996C921.447 333.014 914.129 368.388 893.598 390.304C882.955 401.651 869.727 408.931 856.928 415.96C854.432 417.33 851.936 418.7 849.455 420.108C797.506 449.408 753.585 494.625 725.766 547.418C714.027 569.756 708.598 591.717 730.566 604.234C740.32 609.789 753.03 611.396 763.732 608.419C781.456 603.471 797.573 589.517 813.023 565.735C817.563 558.765 821.896 551.307 826.08 544.093C834.316 529.909 842.834 515.244 854.003 502.231C883.733 467.635 931.757 448.978 985.765 451.045C1043.25 453.244 1097.09 479.204 1126.1 518.814C1163.55 569.816 1156.48 633.016 1148.92 666.152C1147.63 671.848 1141.96 675.411 1136.26 674.114C1130.57 672.826 1126.99 667.152 1128.3 661.457H1128.31Z" fill="#F7B8BD"/>
</g>
<defs>
<clipPath id="clip0_242_195">
<rect width="744" height="819" fill="white"/>
</clipPath>
</defs>
</svg>
