<svg width="100" height="100" viewBox="0 0 100 100" fill="none" xmlns="http://www.w3.org/2000/svg">
<g clip-path="url(#clip0_9_189)">
<path d="M49.9947 99.4606L99.4606 42.8302L86.5614 21.2236H13.4334L0.539551 42.8302L50.0055 99.4606L89.4692 42.8302" stroke="black" stroke-width="1.07898" stroke-linecap="round" stroke-linejoin="round"/>
<path d="M0.539551 42.8302H28.3179" stroke="black" stroke-width="1.07898" stroke-linecap="round" stroke-linejoin="round"/>
<path d="M48.77 42.8302H99.4606" stroke="black" stroke-width="1.07898" stroke-linecap="round" stroke-linejoin="round"/>
<path d="M28.3179 42.8302L49.9299 98.6999" stroke="black" stroke-width="1.07898" stroke-linecap="round" stroke-linejoin="round"/>
<path d="M28.226 42.5496L19.5078 30.1467" stroke="black" stroke-width="1.07898" stroke-linecap="round" stroke-linejoin="round"/>
<path d="M49.1743 21.229L28.2744 42.7817" stroke="black" stroke-width="1.07898" stroke-linecap="round" stroke-linejoin="round"/>
<path d="M71.6766 42.8302L50.0646 98.6999L12.0845 42.8302" stroke="black" stroke-width="1.07898" stroke-linecap="round" stroke-linejoin="round"/>
<path d="M71.7686 42.5498L86.502 21.5959" stroke="black" stroke-width="1.07898" stroke-linecap="round" stroke-linejoin="round"/>
<path d="M50.8687 21.2776L71.7254 42.7817" stroke="black" stroke-width="1.07898" stroke-linecap="round" stroke-linejoin="round"/>
<path d="M50.0215 8.39993V0.539551" stroke="black" stroke-width="1.07898" stroke-linecap="round" stroke-linejoin="round"/>
<path d="M74.2935 8.39452L79.5535 1.5376" stroke="black" stroke-width="1.07898" stroke-linecap="round" stroke-linejoin="round"/>
<path d="M25.7068 8.39452L20.4468 1.5376" stroke="black" stroke-width="1.07898" stroke-linecap="round" stroke-linejoin="round"/>
</g>
<defs>
<clipPath id="clip0_9_189">
<rect width="100" height="100" fill="white"/>
</clipPath>
</defs>
</svg>
