<svg width="1082" height="112" viewBox="0 0 1082 112" fill="none" xmlns="http://www.w3.org/2000/svg">
<path d="M0 56C0 31.6995 19.6995 12 44 12H1074C1078.42 12 1082 15.5817 1082 20V91C1082 95.9706 1077.97 100 1073 100H44C19.6995 100 0 80.3005 0 56Z" fill="url(#paint0_linear_147_1720)"/>
<path d="M1 56C1 32.2518 20.2518 13 44 13H1074C1077.87 13 1081 16.134 1081 20V91C1081 95.4183 1077.42 99 1073 99H44C20.2518 99 1 79.7482 1 56Z" stroke="black" stroke-opacity="0.2" stroke-width="2"/>
<path d="M257.8 46.2102H248.078C245.678 46.2102 243.751 48.1546 243.751 50.5369C243.751 52.9192 245.696 54.8636 248.078 54.8636H255.172C258.203 54.8636 258.326 57.2459 258.326 57.5436V46.7357C258.326 46.4554 258.098 46.2102 257.8 46.2102Z" fill="black"/>
<path d="M242.526 66.0744H252.247C254.647 66.0744 256.574 64.13 256.574 61.7477C256.574 59.3654 254.63 57.4211 252.247 57.4211H245.153C242.123 57.4211 242 55.0388 242 54.741V65.5489C242 65.8292 242.228 66.0744 242.526 66.0744Z" fill="black"/>
<path d="M353.495 50.9923C352.111 50.9923 351.008 49.8712 351.008 48.4874C351.008 47.1036 352.111 46 353.495 46C354.879 46 356 47.1036 356 48.4874C356 49.8712 354.879 50.9923 353.495 50.9923ZM355.755 48.4874C355.755 47.2437 354.739 46.2277 353.495 46.2277C352.252 46.2277 351.236 47.2437 351.236 48.4874C351.236 49.7311 352.252 50.7471 353.495 50.7471C354.739 50.7471 355.755 49.7311 355.755 48.4874ZM353.863 48.7852C353.863 48.7852 353.758 48.7852 353.74 48.7852L354.511 49.8187C354.511 49.8187 354.511 49.8712 354.494 49.8712H354.301C354.301 49.8712 354.248 49.8712 354.248 49.8362L353.46 48.8027H352.777V49.8362C352.777 49.8362 352.759 49.8712 352.742 49.8712H352.584C352.584 49.8712 352.549 49.8712 352.549 49.8362V47.2087C352.549 47.2087 352.567 47.1736 352.584 47.1736H353.74C354.178 47.1736 354.564 47.5415 354.564 47.9969C354.564 48.4173 354.266 48.7502 353.863 48.7852ZM353.705 47.4014H352.777V48.61H353.705C354.056 48.61 354.336 48.3648 354.336 48.0144C354.336 47.6641 354.038 47.4189 353.705 47.4189" fill="black"/>
<path d="M272.462 66.0743C269.8 66.0743 267.855 65.2335 265.718 63.5168C265.56 63.3767 265.56 63.2541 265.666 63.0789L266.576 61.8177C266.682 61.6601 266.839 61.625 266.979 61.7301C268.836 63.1315 270.518 63.8672 272.532 63.8847C274.985 63.8847 277.192 62.8687 277.192 60.5915C277.192 58.3143 275.23 57.6487 272.147 56.983C268.889 56.2648 265.701 54.881 265.701 51.29C265.701 47.6991 268.889 46.1926 272.567 46.1926C274.967 46.1926 276.806 46.8758 278.856 48.3472C279.048 48.4523 279.048 48.61 278.943 48.7501L278.05 50.0113C277.945 50.169 277.787 50.169 277.612 50.0639C275.965 48.9253 274.249 48.3647 272.375 48.3122C269.817 48.3122 268.013 49.3632 268.013 51.3251C268.013 53.287 269.905 54.1103 272.725 54.7584C276.316 55.5642 279.486 56.7028 279.486 60.5215C279.486 64.3401 276.228 66.0568 272.427 66.0568" fill="black"/>
<path d="M283.655 49.2582C282.902 49.2582 282.307 48.6976 282.307 47.9444C282.307 47.1912 282.902 46.6306 283.655 46.6306C284.409 46.6306 284.969 47.1736 284.969 47.9444C284.969 48.7151 284.409 49.2582 283.655 49.2582ZM282.832 65.7766C282.622 65.7766 282.517 65.6715 282.517 65.4788V52.166C282.517 51.9733 282.622 51.8507 282.832 51.8507H284.426C284.619 51.8507 284.724 51.9908 284.724 52.166V65.4788C284.724 65.6715 284.619 65.7766 284.426 65.7766H282.832Z" fill="black"/>
<path d="M292.431 66.0744C289.839 66.0744 288.367 64.3403 288.367 61.1172V46.8058C288.367 46.6132 288.472 46.5081 288.682 46.5081H290.277C290.469 46.5081 290.574 46.6132 290.574 46.8058V61.1522C290.574 63.2542 291.31 64.06 292.676 64.06C293.009 64.06 293.465 64.025 293.885 63.9724C294.095 63.9724 294.2 64.0775 294.2 64.2702V65.6365C294.2 65.8292 294.095 65.9693 293.938 65.9869C293.482 66.0394 292.904 66.0744 292.431 66.0744Z" fill="black"/>
<path d="M305.376 65.7765C305.219 65.7765 305.079 65.724 304.973 65.5838L299.859 59.3478L298.492 60.6616V65.4612C298.492 65.6539 298.387 65.759 298.159 65.759H296.565C296.373 65.759 296.268 65.6539 296.268 65.4612V46.7707C296.268 46.578 296.373 46.4729 296.565 46.4729H298.159C298.37 46.4729 298.492 46.578 298.492 46.7707V57.929L304.588 51.9732C304.693 51.8331 304.833 51.8156 304.973 51.8156H306.935C307.181 51.8156 307.251 52.0082 307.076 52.2009L301.365 57.8414L307.566 65.3912C307.724 65.6014 307.654 65.7765 307.408 65.7765H305.411H305.376Z" fill="black"/>
<path d="M314.275 51.5529C317.586 51.5529 319.635 53.3046 319.635 56.7905V64.8833C319.635 65.0409 319.547 65.1811 319.39 65.2336C318.129 65.6891 316.202 66.0919 314.187 66.0919C311.174 66.0919 308.389 64.8833 308.389 61.6777C308.389 58.8224 310.736 57.386 314.187 57.386C315.291 57.386 316.499 57.5437 317.428 57.7014V56.843C317.428 54.6534 316.535 53.5498 314.187 53.5498C312.681 53.5498 311.297 53.9878 310.351 54.5483C310.193 54.6534 310.053 54.6359 309.948 54.4607L309.16 53.3221C309.072 53.1645 309.055 53.0594 309.16 52.9368C310.421 52.0784 312.173 51.5354 314.257 51.5354M314.187 64.1125C315.396 64.1125 316.605 63.8673 317.428 63.6221V59.5757C316.57 59.418 315.291 59.2604 314.187 59.2604C311.735 59.2604 310.596 60.1712 310.596 61.6602C310.596 63.2717 312.103 64.1125 314.187 64.1125Z" fill="black"/>
<path d="M323.436 65.7766C323.244 65.7766 323.139 65.6715 323.139 65.4789V52.9718C323.139 52.8141 323.191 52.674 323.349 52.5864C324.89 51.9383 326.66 51.5354 328.516 51.5354C332.125 51.5354 334.577 53.2345 334.577 57.351V65.4613C334.577 65.654 334.472 65.7591 334.244 65.7591H332.65C332.458 65.7591 332.353 65.654 332.353 65.4613V57.4036C332.353 54.6009 330.916 53.5148 328.499 53.5148C327.36 53.5148 326.152 53.725 325.311 54.0053V65.4613C325.311 65.654 325.206 65.7591 324.995 65.7591H323.401L323.436 65.7766Z" fill="black"/>
<path d="M338.448 65.7766C338.255 65.7766 338.15 65.6715 338.15 65.4789V52.9718C338.15 52.8141 338.203 52.674 338.361 52.5864C339.902 51.9383 341.671 51.5354 343.528 51.5354C347.137 51.5354 349.589 53.2345 349.589 57.351V65.4613C349.589 65.654 349.484 65.7591 349.256 65.7591H347.662C347.469 65.7591 347.364 65.654 347.364 65.4613V57.4036C347.364 54.6009 345.945 53.5148 343.511 53.5148C342.372 53.5148 341.163 53.725 340.322 54.0053V65.4613C340.322 65.654 340.217 65.7591 340.007 65.7591H338.413L338.448 65.7766Z" fill="black"/>
<rect x="87" y="24" width="104" height="64" rx="32" fill="url(#paint1_radial_147_1720)"/>
<rect x="88" y="25" width="102" height="62" rx="31" stroke="black" stroke-opacity="0.2" stroke-width="2"/>
<g filter="url(#filter0_i_147_1720)">
<rect x="488" y="12" width="212" height="88" rx="40" fill="url(#paint2_linear_147_1720)"/>
</g>
<rect x="489" y="13" width="210" height="86" rx="39" stroke="black" stroke-opacity="0.2" stroke-width="2"/>
<mask id="mask0_147_1720" style="mask-type:alpha" maskUnits="userSpaceOnUse" x="491" y="12" width="206" height="88">
<rect x="491" y="12" width="206" height="88" rx="40" fill="#8098B0"/>
</mask>
<g mask="url(#mask0_147_1720)">
<path d="M506 12H681V17H506V12Z" fill="black"/>
<path d="M506 95H681V100H506V95Z" fill="black"/>
</g>
<path d="M593.007 17L587.234 27L598.781 27L593.007 17ZM593.007 39.2943L594.007 39.3218L594.007 39.3081L594.007 39.2942L593.007 39.2943ZM592.007 26L592.007 39.2943L594.007 39.2942L594.007 26L592.007 26ZM592.008 39.2666C591.928 42.1612 592.449 46.5164 594.319 50.1891C596.213 53.9101 599.547 57 605 57V55C600.49 55 597.75 52.5213 596.101 49.2816C594.427 45.9936 593.933 41.9959 594.007 39.3218L592.008 39.2666Z" fill="#BAFAE0"/>
<path d="M593.007 95L587.234 85L598.781 85L593.007 95ZM593.007 71.6574L594.007 71.6279L594.007 71.6426L594.007 71.6574L593.007 71.6574ZM592.007 86L592.007 71.6573L594.007 71.6574L594.007 86L592.007 86ZM592.008 71.6868C591.927 68.958 592.451 64.8551 594.331 61.3942C596.241 57.8776 599.581 55 605 55V57C600.456 57 597.722 59.3415 596.089 62.3489C594.425 65.4118 593.934 69.1376 594.007 71.6279L592.008 71.6868Z" fill="#BAFAE0"/>
<rect x="1066" width="16" height="112" rx="8" fill="black"/>
<defs>
<filter id="filter0_i_147_1720" x="488" y="12" width="212" height="88" filterUnits="userSpaceOnUse" color-interpolation-filters="sRGB">
<feFlood flood-opacity="0" result="BackgroundImageFix"/>
<feBlend mode="normal" in="SourceGraphic" in2="BackgroundImageFix" result="shape"/>
<feColorMatrix in="SourceAlpha" type="matrix" values="0 0 0 0 0 0 0 0 0 0 0 0 0 0 0 0 0 0 127 0" result="hardAlpha"/>
<feMorphology radius="16" operator="erode" in="SourceAlpha" result="effect1_innerShadow_147_1720"/>
<feOffset/>
<feGaussianBlur stdDeviation="6"/>
<feComposite in2="hardAlpha" operator="arithmetic" k2="-1" k3="1"/>
<feColorMatrix type="matrix" values="0 0 0 0 0 0 0 0 0 0 0 0 0 0 0 0 0 0 0.25 0"/>
<feBlend mode="normal" in2="shape" result="effect1_innerShadow_147_1720"/>
</filter>
<linearGradient id="paint0_linear_147_1720" x1="432.266" y1="-15" x2="432.266" y2="147" gradientUnits="userSpaceOnUse">
<stop stop-color="#969596"/>
<stop offset="0.29" stop-color="#FCFCFC"/>
<stop offset="0.515" stop-color="#7A7A7B"/>
<stop offset="0.775" stop-color="#404142"/>
<stop offset="1" stop-color="#838283"/>
</linearGradient>
<radialGradient id="paint1_radial_147_1720" cx="0" cy="0" r="1" gradientUnits="userSpaceOnUse" gradientTransform="translate(97.4 56) scale(93.6 59.4141)">
<stop stop-color="#5E6061"/>
<stop offset="0.44" stop-color="#505354"/>
<stop offset="1" stop-color="#0D0E0F"/>
</radialGradient>
<linearGradient id="paint2_linear_147_1720" x1="572.695" y1="12" x2="572.695" y2="100" gradientUnits="userSpaceOnUse">
<stop stop-color="#909192"/>
<stop offset="0.48" stop-color="#505050"/>
<stop offset="1" stop-color="#A8A9AB"/>
</linearGradient>
</defs>
</svg>
