<svg width="200" height="36" viewBox="0 0 200 36" fill="none" xmlns="http://www.w3.org/2000/svg">
<path d="M27.7198 0.368896H10.6639C6.4537 0.368896 3.07324 3.78008 3.07324 7.95955C3.07324 12.139 6.48443 15.5502 10.6639 15.5502H23.1101C28.4267 15.5502 28.6418 19.7297 28.6418 20.2521V1.29084C28.6418 0.799134 28.2423 0.368896 27.7198 0.368896Z" fill="black"/>
<path d="M0.921946 35.2182H17.9779C22.1881 35.2182 25.5685 31.807 25.5685 27.6275C25.5685 23.4481 22.1574 20.0369 17.9779 20.0369H5.53166C0.215123 20.0369 0 15.8574 0 15.335V34.2962C0 34.7879 0.399512 35.2182 0.921946 35.2182Z" fill="black"/>
<path d="M195.606 8.75845C193.178 8.75845 191.242 6.79164 191.242 4.36386C191.242 1.93608 193.178 0 195.606 0C198.033 0 200 1.93608 200 4.36386C200 6.79164 198.033 8.75845 195.606 8.75845ZM199.57 4.36386C199.57 2.18193 197.787 0.399506 195.606 0.399506C193.424 0.399506 191.641 2.18193 191.641 4.36386C191.641 6.54579 193.424 8.32821 195.606 8.32821C197.787 8.32821 199.57 6.54579 199.57 4.36386ZM196.251 4.88629C196.251 4.88629 196.067 4.88629 196.036 4.88629L197.388 6.69945C197.388 6.69945 197.388 6.79164 197.357 6.79164H197.019C197.019 6.79164 196.927 6.79164 196.927 6.73018L195.544 4.91702H194.346V6.73018C194.346 6.73018 194.315 6.79164 194.284 6.79164H194.008C194.008 6.79164 193.946 6.79164 193.946 6.73018V2.12047C193.946 2.12047 193.977 2.059 194.008 2.059H196.036C196.804 2.059 197.48 2.70436 197.48 3.50338C197.48 4.24093 196.958 4.82483 196.251 4.88629ZM195.974 2.45851H194.346V4.57898H195.974C196.589 4.57898 197.081 4.14874 197.081 3.53411C197.081 2.91948 196.558 2.48924 195.974 2.48924" fill="black"/>
<path d="M53.4419 35.218C48.7708 35.218 45.3596 33.7429 41.6104 30.7313C41.3338 30.4854 41.3338 30.2703 41.5182 29.963L43.1162 27.7503C43.3006 27.4737 43.5772 27.4123 43.823 27.5967C47.0805 30.0552 50.0308 31.3459 53.5649 31.3766C57.8673 31.3766 61.7394 29.5942 61.7394 25.5991C61.7394 21.604 58.2975 20.4362 52.8888 19.2684C47.1727 18.0085 41.5796 15.5807 41.5796 9.28073C41.5796 2.98079 47.1727 0.337891 53.6263 0.337891C57.8365 0.337891 61.0633 1.53641 64.6589 4.11785C64.997 4.30224 64.997 4.57883 64.8126 4.82468L63.2453 7.03734C63.0609 7.31392 62.7843 7.31392 62.477 7.12953C59.5882 5.13199 56.5765 4.14859 53.2883 4.05639C48.8015 4.05639 45.6362 5.90028 45.6362 9.34219C45.6362 12.7841 48.9552 14.2285 53.9029 15.3656C60.2029 16.7792 65.7652 18.7767 65.7652 25.4762C65.7652 32.1756 60.0492 35.1873 53.3805 35.1873" fill="black"/>
<path d="M73.0792 5.71616C71.7577 5.71616 70.7129 4.73275 70.7129 3.4113C70.7129 2.08985 71.7577 1.10645 73.0792 1.10645C74.4007 1.10645 75.3841 2.05912 75.3841 3.4113C75.3841 4.76348 74.4007 5.71616 73.0792 5.71616ZM71.6348 34.6959C71.2661 34.6959 71.0817 34.5115 71.0817 34.1734V10.8176C71.0817 10.4795 71.2661 10.2644 71.6348 10.2644H74.4314C74.7694 10.2644 74.9538 10.5103 74.9538 10.8176V34.1734C74.9538 34.5115 74.7694 34.6959 74.4314 34.6959H71.6348Z" fill="black"/>
<path d="M88.4759 35.2183C83.9276 35.2183 81.3462 32.1759 81.3462 26.5214V1.41379C81.3462 1.07574 81.5306 0.891357 81.8994 0.891357H84.6959C85.034 0.891357 85.2183 1.07574 85.2183 1.41379V26.5828C85.2183 30.2706 86.5091 31.6842 88.9061 31.6842C89.49 31.6842 90.289 31.6228 91.0266 31.5306C91.3954 31.5306 91.5797 31.715 91.5797 32.053V34.4501C91.5797 34.7881 91.3954 35.034 91.1188 35.0647C90.3198 35.1569 89.3056 35.2183 88.4759 35.2183Z" fill="black"/>
<path d="M111.186 34.6958C110.91 34.6958 110.664 34.6037 110.48 34.3578L101.506 23.4174L99.1089 25.7223V34.1427C99.1089 34.4807 98.9246 34.6651 98.5251 34.6651H95.7285C95.3904 34.6651 95.2061 34.4807 95.2061 34.1427V1.35227C95.2061 1.01422 95.3904 0.829834 95.7285 0.829834H98.5251C98.8938 0.829834 99.1089 1.01422 99.1089 1.35227V20.9282L109.803 10.4795C109.988 10.2336 110.234 10.2029 110.48 10.2029H113.921C114.352 10.2029 114.475 10.541 114.167 10.879L104.149 20.7745L115.028 34.0198C115.304 34.3885 115.181 34.6958 114.751 34.6958H111.248H111.186Z" fill="black"/>
<path d="M126.798 9.74191C132.606 9.74191 136.202 12.8151 136.202 18.9306V33.1285C136.202 33.4051 136.048 33.651 135.771 33.7431C133.559 34.5422 130.178 35.249 126.644 35.249C121.358 35.249 116.472 33.1285 116.472 27.5047C116.472 22.4954 120.59 19.9755 126.644 19.9755C128.58 19.9755 130.701 20.2521 132.33 20.5286V19.0228C132.33 15.1814 130.762 13.2453 126.644 13.2453C124.001 13.2453 121.574 14.0136 119.914 14.997C119.638 15.1814 119.392 15.1506 119.207 14.8433L117.824 12.8458C117.671 12.5692 117.64 12.3848 117.824 12.1697C120.037 10.6639 123.11 9.71118 126.767 9.71118M126.644 31.7763C128.765 31.7763 130.885 31.3461 132.33 30.9159V23.8169C130.824 23.5403 128.58 23.2637 126.644 23.2637C122.342 23.2637 120.344 24.8618 120.344 27.4739C120.344 30.3012 122.987 31.7763 126.644 31.7763Z" fill="black"/>
<path d="M142.871 34.6958C142.533 34.6958 142.348 34.5114 142.348 34.1734V12.2312C142.348 11.9546 142.44 11.7087 142.717 11.5551C145.421 10.418 148.525 9.71118 151.783 9.71118C158.113 9.71118 162.416 12.6921 162.416 19.914V34.1427C162.416 34.4807 162.231 34.6651 161.832 34.6651H159.035C158.697 34.6651 158.513 34.4807 158.513 34.1427V20.0062C158.513 15.0892 155.993 13.1838 151.752 13.1838C149.754 13.1838 147.634 13.5526 146.159 14.0443V34.1427C146.159 34.4807 145.974 34.6651 145.606 34.6651H142.809L142.871 34.6958Z" fill="black"/>
<path d="M169.207 34.6958C168.869 34.6958 168.685 34.5114 168.685 34.1734V12.2312C168.685 11.9546 168.777 11.7087 169.053 11.5551C171.758 10.418 174.862 9.71118 178.119 9.71118C184.45 9.71118 188.752 12.6921 188.752 19.914V34.1427C188.752 34.4807 188.568 34.6651 188.168 34.6651H185.372C185.034 34.6651 184.849 34.4807 184.849 34.1427V20.0062C184.849 15.0892 182.36 13.1838 178.088 13.1838C176.091 13.1838 173.97 13.5526 172.495 14.0443V34.1427C172.495 34.4807 172.311 34.6651 171.942 34.6651H169.146L169.207 34.6958Z" fill="black"/>
</svg>
