<svg width="100" height="100" viewBox="0 0 100 100" fill="none" xmlns="http://www.w3.org/2000/svg">
<g clip-path="url(#clip0_9_221)">
<path d="M99.3019 42.4801H57.6138V0.494995H99.4999L99.2128 42.5693" stroke="black" stroke-width="1.25" stroke-linecap="round" stroke-linejoin="round"/>
<path d="M99.3019 57.8069H57.6138V99.5049H99.5049L99.3019 57.8069Z" stroke="black" stroke-width="1.25" stroke-linecap="round" stroke-linejoin="round"/>
<path d="M42.3366 57.8069H0.648438V99.5049H42.3366V57.8069Z" stroke="black" stroke-width="1.25" stroke-linecap="round" stroke-linejoin="round"/>
<path d="M0.648583 42.4801H5.75254H23.3862H42.3367V0.494995H0.495117L0.648583 42.4801Z" stroke="black" stroke-width="1.25" stroke-linecap="round" stroke-linejoin="round"/>
<path d="M57.6138 30.5395L87.6732 0.494995" stroke="black" stroke-width="1.25" stroke-linecap="round" stroke-linejoin="round"/>
<path d="M67.9209 42.4851L98.7724 11.6385" stroke="black" stroke-width="1.25" stroke-linecap="round" stroke-linejoin="round"/>
<path d="M42.1387 31.0247L11.5991 0.494995" stroke="black" stroke-width="1.25" stroke-linecap="round" stroke-linejoin="round"/>
<path d="M31.3516 42.4851L0.495117 11.6385" stroke="black" stroke-width="1.25" stroke-linecap="round" stroke-linejoin="round"/>
<path d="M42.1384 69.2574L12.0493 99.3317" stroke="black" stroke-width="1.25" stroke-linecap="round" stroke-linejoin="round"/>
<path d="M31.3515 57.802L0.678223 88.5248" stroke="black" stroke-width="1.25" stroke-linecap="round" stroke-linejoin="round"/>
<path d="M57.6138 69.7426L87.2474 99.3614" stroke="black" stroke-width="1.25" stroke-linecap="round" stroke-linejoin="round"/>
<path d="M67.9209 57.802L99.4556 89.3268" stroke="black" stroke-width="1.25" stroke-linecap="round" stroke-linejoin="round"/>
<path d="M57.6138 42.4802L99.4999 0.5" stroke="black" stroke-width="1.25" stroke-linecap="round" stroke-linejoin="round"/>
<path d="M0.791992 99.505L42.3365 57.8713" stroke="black" stroke-width="1.25" stroke-linecap="round" stroke-linejoin="round"/>
<path d="M98.7672 99.5049L57.6138 58.2623" stroke="black" stroke-width="1.25" stroke-linecap="round" stroke-linejoin="round"/>
<path d="M41.9506 42.4802L0.495117 0.935669" stroke="black" stroke-width="1.25" stroke-linecap="round" stroke-linejoin="round"/>
</g>
<defs>
<clipPath id="clip0_9_221">
<rect width="100" height="100" fill="white"/>
</clipPath>
</defs>
</svg>
