<svg width="30" height="36" viewBox="0 0 30 36" fill="none" xmlns="http://www.w3.org/2000/svg">
<path d="M5 2.14062C4.21875 1.67188 3.28125 1.67188 2.5 2.14062C1.71875 2.53125 1.25 3.39062 1.25 4.25V31.75C1.25 32.6875 1.71875 33.5469 2.5 33.9375C3.28125 34.4062 4.21875 34.4062 5 33.9375L27.5 20.1875C28.2812 19.7188 28.6719 18.9375 28.6719 18C28.6719 17.1406 28.2812 16.3594 27.5 15.8906L5 2.14062ZM1.875 1.04688C3.04688 0.34375 4.53125 0.34375 5.70312 1.04688L28.2031 14.7969C29.2969 15.5 30 16.75 30 18C30 19.3281 29.2969 20.5781 28.2031 21.2031L5.70312 34.9531C4.53125 35.7344 3.04688 35.7344 1.875 35.0312C0.703125 34.4062 0 33.1562 0 31.75V4.25C0 2.92188 0.703125 1.67188 1.875 1.04688Z" fill="black"/>
</svg>
