<svg width="339" height="229" viewBox="0 0 339 229" fill="none" xmlns="http://www.w3.org/2000/svg">
<path d="M18 0.5H321C330.665 0.5 338.5 8.33502 338.5 18V228.5H0.5V18C0.5 8.33502 8.33502 0.5 18 0.5Z" fill="#BAFAE0" stroke="#BAFAE0"/>
<mask id="mask0_256_382" style="mask-type:alpha" maskUnits="userSpaceOnUse" x="0" y="0" width="339" height="229">
<path d="M18 0.5H321C330.665 0.5 338.5 8.33502 338.5 18V228.5H0.5V18C0.5 8.33502 8.33502 0.5 18 0.5Z" fill="#FFE099" stroke="#FFE099"/>
</mask>
<g mask="url(#mask0_256_382)">
<path d="M39.7316 89.3489C42.1785 89.9598 43.6658 92.4355 43.0581 94.8855C37.7453 116.194 35.9925 137.839 37.854 159.224C38.0747 161.738 36.2132 163.952 33.6991 164.169C31.1883 164.39 28.9749 162.535 28.7542 160.017C26.8063 137.624 28.6358 114.969 34.1949 92.6753C34.8058 90.2284 37.2847 88.7379 39.7316 89.3489Z" fill="#99EBFF"/>
<path d="M41.4108 67.1225C47.8495 72.528 54.8511 77.4825 62.2173 81.8453C64.0533 82.9328 64.8881 85.1398 64.242 87.1709C53.4021 121.008 52.5257 155.297 61.6448 189.092C67.4405 210.545 77.0905 230.405 90.3325 248.131C91.8422 250.153 91.4264 253.012 89.4081 254.525C87.4058 256.022 84.5719 255.628 83.0526 253.652L83.0142 253.601C69.0814 234.95 58.926 214.051 52.8264 191.479C43.5506 157.104 44.1072 122.256 54.4704 87.8362C47.8047 83.6909 41.4492 79.0882 35.5383 74.1272C33.5936 72.496 33.3569 69.6237 34.9753 67.6918C36.597 65.7599 39.4789 65.5104 41.4108 67.1288V67.1225Z" fill="#99EBFF"/>
<path d="M48.7322 49.2777C59.3482 58.9181 71.3619 66.8601 84.4343 72.8797C86.6541 73.9 87.6776 76.4972 86.7501 78.7618C72.3566 113.85 69.8426 149.366 79.2719 184.326C90.1981 224.81 116.893 259.387 154.14 280.619C156.472 281.952 158.765 283.181 160.953 284.265C163.218 285.391 164.136 288.129 163.013 290.387C161.89 292.645 159.149 293.566 156.891 292.447C154.546 291.282 152.096 289.971 149.611 288.551C111.168 266.638 82.2753 230.523 70.4535 186.706C60.8483 151.1 62.9529 114.988 76.7034 79.3088C64.2899 73.1548 52.8359 65.3439 42.5942 56.0426C40.7422 54.3538 40.5855 51.4591 42.2839 49.5911C43.9792 47.7232 46.8675 47.5824 48.7354 49.2809L48.7322 49.2777Z" fill="#99EBFF"/>
<path d="M57.8609 32.7511C72.1232 46.5976 89.7184 56.8937 108.74 62.5263C110.064 62.9197 111.107 63.9529 111.628 65.2259C112.156 66.4989 112.044 68.0118 111.385 69.2209L111.238 69.4959C91.919 106.183 87.0988 143.219 96.9087 179.567C106.444 214.818 129.665 245.624 163.179 264.738C185.099 277.219 211.56 283.974 237.683 283.753C240.207 283.734 242.266 285.759 242.289 288.283C242.311 290.803 240.283 292.866 237.76 292.888C210.047 293.119 181.958 285.941 158.657 272.674C123.648 252.708 98.444 220.243 88.0903 181.95C78.0533 144.754 82.3713 106.986 100.916 69.6143C82.4929 63.3036 65.499 52.8955 51.4958 39.3049C49.6822 37.5425 49.6439 34.6574 51.3999 32.847C53.1558 31.0367 56.0473 30.9919 57.8577 32.7511H57.8609Z" fill="#99EBFF"/>
<path d="M68.544 17.6059C86.6542 36.2278 110.928 47.4259 136.894 49.1371C138.522 49.2459 139.971 50.2086 140.693 51.68C141.413 53.1449 141.298 54.8849 140.39 56.2379C135.726 63.1947 131.354 70.5194 127.4 77.9976C110.301 110.472 105.98 143.043 114.561 174.811C122.814 205.495 143.16 232.318 172.215 248.857C201.338 265.448 237.977 269.984 270.234 260.993C281.992 257.727 293.248 252.891 303.688 246.628C305.85 245.329 308.658 246.039 309.954 248.195C311.253 250.361 310.552 253.166 308.387 254.461C297.243 261.149 285.229 266.305 272.684 269.792C238.137 279.423 198.888 274.564 167.699 256.796C136.945 239.297 114.753 210.689 105.743 177.191C96.544 143.129 101.108 108.323 119.324 73.7371C122.244 68.2164 125.382 62.7789 128.693 57.5013C103.354 54.1301 79.9052 42.3946 61.9998 23.9806C60.2374 22.167 60.279 19.2788 62.0894 17.5228C63.8965 15.7636 66.788 15.8019 68.5472 17.6123L68.544 17.6059Z" fill="#99EBFF"/>
<path d="M455.986 58.6713C438.855 39.1442 416.021 23.9704 389.959 14.7906C389.108 14.4899 388.382 13.9557 387.854 13.2649C387.413 12.6891 387.106 12.0046 386.978 11.2658C386.402 7.96487 385.705 4.67997 384.899 1.47824C378.527 -24.1229 367.134 -47.7249 351.039 -68.669C338.715 -84.7065 323.919 -98.7896 307.062 -110.528C304.996 -111.968 304.484 -114.814 305.924 -116.887C307.363 -118.956 310.213 -119.465 312.282 -118.022C329.91 -105.746 345.384 -91.014 358.281 -74.2344C375.146 -52.286 387.087 -27.5549 393.762 -0.73516C394.405 1.82367 394.984 4.44008 395.496 7.07887C421.996 16.8568 445.243 32.5745 462.857 52.6485C464.543 54.558 464.331 57.4303 462.438 59.0935C460.541 60.7568 457.656 60.5681 455.993 58.6713H455.986Z" fill="#99EBFF"/>
<path d="M80.6569 3.84873C91.0458 14.8773 104.211 23.0176 118.736 27.3964C136.212 32.6484 154.604 32.2998 171.915 26.3888C174.326 25.5604 176.923 24.9943 179.642 24.7128C181.561 24.5113 183.397 25.538 184.235 27.278C185.07 29.018 184.721 31.0971 183.365 32.4693C167.309 48.6827 153.923 66.8664 143.579 86.5118C128.689 114.765 124.858 142.867 132.189 170.035C139.478 197.009 157.284 219.328 181.264 232.983C206.238 247.203 237.664 251.096 265.328 243.4C281.743 238.82 296.779 230.849 310.024 219.718C311.169 218.759 312.711 218.416 314.15 218.803C315.593 219.194 316.754 220.262 317.259 221.669C319.492 227.884 322.422 233.811 325.966 239.29C327.335 241.408 326.727 244.235 324.61 245.607C322.489 246.976 319.652 246.369 318.293 244.251C315.507 239.943 313.063 235.385 310.997 230.641C297.969 240.579 283.464 247.821 267.778 252.199C237.814 260.538 203.782 256.322 176.741 240.921C150.267 225.847 131.184 201.343 123.367 172.418C115.415 142.947 119.497 112.612 135.493 82.2546C143.867 66.3482 154.156 51.3663 166.173 37.5582C149.653 41.5403 132.515 41.0766 116.1 36.1412C100.046 31.3018 85.4867 22.3011 74.004 10.1083C72.2736 8.29151 72.3599 5.38403 74.1991 3.65362C76.0351 1.92321 78.9265 2.00958 80.6537 3.84554L80.6569 3.84873Z" fill="#99EBFF"/>
<path d="M453.009 84.9445C451.764 82.9934 450.36 80.9528 448.841 78.8865C448.307 78.1604 447.76 77.4632 447.238 76.7723C429.787 54.0626 403.649 37.04 373.646 28.8421C372.661 28.5735 371.823 27.9913 371.228 27.2205C370.704 26.536 370.371 25.7076 370.298 24.8088C369.786 18.5204 368.74 12.1585 367.192 5.90539C361.418 -17.252 351.11 -38.5927 336.553 -57.5345C321.165 -77.5605 301.666 -94.0778 278.595 -106.632C276.081 -108.004 273.74 -109.21 271.44 -110.317C269.166 -111.408 268.21 -114.142 269.31 -116.413C270.404 -118.687 273.135 -119.641 275.406 -118.547C277.844 -117.373 280.319 -116.1 282.965 -114.654C307.155 -101.489 327.623 -84.1399 343.794 -63.0999C359.119 -43.1602 369.975 -20.6873 376.055 3.69839C377.466 9.3854 378.486 15.1588 379.103 20.897C409.742 29.9232 436.418 47.7039 454.48 71.2068C455.043 71.9393 455.619 72.6877 456.194 73.4682C457.838 75.704 459.358 77.911 460.711 80.0348C462.067 82.1618 461.443 84.9829 459.316 86.3391C457.186 87.6953 454.352 87.078 453.009 84.9445Z" fill="#99EBFF"/>
<path d="M94.0972 -8.54896C112.47 10.8438 140.687 17.7718 165.988 9.10379C180.832 4.02771 198.456 5.75811 213.125 13.7321C215.411 14.9699 217.561 16.3421 219.509 17.8006C220.657 18.661 221.335 20.0108 221.335 21.4501C221.338 22.8863 220.663 24.2393 219.515 25.1061C194.605 43.8623 173.936 68.0369 159.747 95.0294C147.078 119.07 143.739 142.71 149.822 165.292C155.672 186.994 170.072 205.593 190.297 217.105C211.154 228.988 237.366 232.237 260.415 225.799C285.434 218.842 306.49 202.539 322.998 177.35C324.181 175.543 326.471 174.814 328.486 175.601C330.495 176.391 331.682 178.483 331.323 180.616C328.537 197.095 331.816 213.996 340.564 228.207C341.885 230.356 341.216 233.168 339.067 234.489C336.918 235.81 334.113 235.151 332.785 232.992C325.72 221.512 321.805 208.485 321.283 195.185C305.111 215.067 285.517 228.297 262.871 234.598C237.526 241.673 208.707 238.103 185.78 225.04C163.323 212.259 147.458 191.603 141.007 167.668C134.303 142.787 137.892 116.917 151.671 90.7753C165.492 64.4897 185.188 40.7661 208.867 21.8148C208.835 21.7956 208.803 21.7796 208.771 21.7636C196.303 14.9859 181.417 13.4858 168.949 17.7494C140.278 27.5722 108.296 19.7197 87.4698 -2.26063C85.7234 -4.10618 85.813 -6.98167 87.6457 -8.71848C89.4753 -10.4553 92.3668 -10.3753 94.1004 -8.54577L94.0972 -8.54896Z" fill="#99EBFF"/>
<path d="M445.949 110.225C442.786 102.987 438.801 96.0784 434.099 89.6909C433.657 89.0863 433.216 88.5138 432.749 87.9061C415.205 65.0781 387.263 48.9447 356.09 43.6383C353.809 43.2513 352.175 41.217 352.296 38.9076C352.776 29.4048 351.816 19.7868 349.449 10.3159C344.293 -10.3819 335.078 -29.4644 322.064 -46.4007C308.236 -64.3924 290.676 -79.2561 269.879 -90.5725C260.36 -95.7445 250.212 -100.088 239.711 -103.485C238.799 -103.779 238.041 -104.336 237.497 -105.046C236.611 -106.197 236.291 -107.752 236.771 -109.239C237.548 -111.638 240.123 -112.956 242.522 -112.179C253.554 -108.609 264.224 -104.042 274.242 -98.5976C296.168 -86.6671 314.694 -70.9782 329.305 -51.9661C343.091 -34.0255 352.853 -13.8139 358.313 8.10569C360.568 17.1192 361.649 26.267 361.543 35.3572C393.378 41.6968 421.804 58.6746 439.991 82.3406C440.48 82.9771 440.979 83.6264 441.459 84.2821C446.554 91.2102 450.878 98.7075 454.314 106.566C455.324 108.879 454.269 111.569 451.959 112.583C449.65 113.594 446.957 112.538 445.946 110.225H445.949Z" fill="#99EBFF"/>
<path d="M108.5 -19.9422C122.139 -6.46674 141.903 -1.96 160.08 -8.17796C179.674 -14.8949 202.768 -12.7071 221.857 -2.32143C230.205 2.23009 237.107 8.00665 242.366 14.8483C244.403 17.4999 246.194 20.3274 247.682 23.2413C248.769 25.3715 248.027 27.9815 245.98 29.2226C216.672 46.9873 191.784 73.3784 175.903 103.534C165.457 123.384 162.62 142.56 167.462 160.523C172.25 178.15 183.88 192.412 199.348 201.227C216.058 210.74 237.053 213.347 255.515 208.2C278.288 201.851 298.964 184.259 312.241 159.937C315.708 153.585 320.02 145.681 329.251 142.982C336.889 140.743 347.342 142.262 352.533 149.27C357.798 156.457 355.037 166.242 352.037 173.979C346.58 187.87 347.78 203.994 355.248 217.108C356.499 219.302 355.731 222.088 353.54 223.339C351.346 224.586 348.551 223.812 347.31 221.631C338.488 206.14 337.078 187.077 343.526 170.659C344.668 167.71 348.148 158.741 345.163 154.673C342.637 151.193 336.256 150.45 331.816 151.749C326.612 153.272 323.861 157.711 320.26 164.316C305.809 190.79 283.105 209.991 257.968 216.999C237.213 222.785 213.611 219.859 194.829 209.163C176.994 199.004 164.005 182.631 158.644 162.909C153.177 142.643 156.267 121.232 167.82 99.277C183.778 68.9772 208.403 42.311 237.469 23.7595C232.831 16.4732 226.056 10.3672 217.491 5.7005C200.612 -3.48251 180.259 -5.44002 163.042 0.461293C141.56 7.80834 118.205 2.47957 102.081 -13.4492C100.309 -15.2084 100.267 -18.1158 102.042 -19.907C103.814 -21.7014 106.709 -21.7174 108.503 -19.9454L108.5 -19.9422Z" fill="#99EBFF"/>
<path d="M434.7 134.413C431.937 122 426.781 110.59 419.357 100.486C418.995 99.9872 418.628 99.5106 418.263 99.0372C400.453 75.867 370.349 61.3008 337.714 60.0694C337.055 60.0438 336.4 60.0182 335.737 60.015C334.304 60.0086 332.983 59.3273 332.101 58.1855C331.243 57.0404 330.972 55.5563 331.368 54.1809C334.951 41.7578 335.075 28.1224 331.73 14.7429C327.181 -3.51439 319.057 -20.3419 307.584 -35.2695C295.321 -51.227 279.699 -64.437 261.151 -74.5316C245.938 -82.8062 229.376 -88.554 211.922 -91.615C210.748 -91.8229 209.763 -92.4562 209.091 -93.3294C208.34 -94.3082 207.984 -95.5876 208.212 -96.9022C208.647 -99.3843 211.013 -101.048 213.499 -100.613C231.929 -97.382 249.431 -91.308 265.517 -82.5535C285.194 -71.8416 301.782 -57.8064 314.825 -40.8318C327.069 -24.8998 335.737 -6.94324 340.593 12.5359C343.836 25.5028 344.146 38.7255 341.54 51.1231C375.511 53.3301 406.707 69.0029 425.511 93.475C425.927 94.0155 426.339 94.5561 426.736 95.103C434.899 106.215 440.579 118.772 443.618 132.433C444.165 134.896 442.613 137.337 440.151 137.884C437.688 138.434 435.247 136.882 434.7 134.419V134.413Z" fill="#99EBFF"/>
<path d="M361.847 210.065C356.899 199.772 356.429 187.813 360.558 177.267C362.755 171.603 367.46 153.291 360.523 143.833L360.267 143.5C355.786 137.669 345.605 133.489 334.925 133.095C325.883 132.75 318.027 135.133 314.432 139.32C312.247 141.862 309.561 146.52 307.184 150.636C305.118 154.202 302.888 158.009 300.368 161.879C287.561 181.601 271.642 194.223 253.058 199.395C236.902 203.905 218.52 201.627 203.881 193.298C190.111 185.481 180.256 172.892 176.297 158.146C169.893 134.426 180.509 114.371 183.992 107.792C200.023 77.3127 225.375 51.2158 255.352 34.3179C256.529 33.6462 257.719 32.9937 258.956 32.3156C262.91 30.1119 258.022 32.8434 260.572 31.4201C258.438 23.4173 254.754 15.9711 249.61 9.27976C243.568 1.41774 235.7 -5.18405 226.223 -10.3433C204.907 -21.9348 179.076 -24.3625 157.124 -16.8363C143.384 -12.1217 128.008 -15.0675 117.002 -24.5224C115.096 -26.1537 114.869 -29.0484 116.513 -30.9643C118.157 -32.877 121.042 -33.0945 122.954 -31.4505C131.511 -24.1002 143.47 -21.8101 154.159 -25.4788C178.491 -33.8174 207.06 -31.1594 230.585 -18.3684C241.189 -12.5951 250.026 -5.16805 256.849 3.7111C262.971 11.6755 267.285 20.5802 269.694 30.2334C270.41 33.2688 270.605 36.1315 267.941 37.7276C266.652 38.4952 264.95 39.4356 263.37 40.3088C262.145 40.9805 261.003 41.6074 259.852 42.2631C231.369 58.3166 207.297 83.0989 192.065 112.052C188.992 117.854 179.642 135.517 185.108 155.77C188.422 168.123 196.825 178.79 208.387 185.353C220.958 192.505 236.733 194.462 250.595 190.589C266.975 186.031 281.138 174.696 292.701 156.892C295.106 153.198 297.269 149.51 299.268 146.056C302.479 140.49 304.948 136.323 307.494 133.361C312.945 127.018 323.327 123.503 335.258 123.963C348.701 124.456 361.358 129.938 367.499 137.928L367.816 138.344C379.222 153.889 369.165 180.306 369.06 180.584C365.845 188.785 366.216 198.09 370.07 206.102C371.164 208.376 370.208 211.105 367.934 212.198C365.66 213.292 362.928 212.32 361.837 210.062L361.847 210.065Z" fill="#99EBFF"/>
<path d="M322.87 16.9438C326.308 30.7647 325.633 44.4704 320.919 56.5769C320.004 58.9278 317.355 60.0921 315.004 59.1741C314.198 58.8606 313.533 58.3457 313.04 57.706C312.1 56.4809 311.803 54.8081 312.404 53.2632C316.428 42.9255 316.981 31.1293 314 19.1508C305.796 -13.7622 283.921 -41.3369 252.412 -58.4874C250.199 -59.6901 249.377 -62.4664 250.583 -64.683C251.788 -66.8964 254.562 -67.7152 256.778 -66.5094C290.564 -48.1178 314.035 -18.4801 322.866 16.947L322.87 16.9438Z" fill="#99EBFF"/>
<path d="M419.907 160.014C419.315 159.246 418.931 158.117 418.967 157.049C418.855 139.486 414.034 124.104 404.64 111.323C390.272 91.7508 364.959 79.3884 337.023 78.3233C310.91 77.319 287.519 86.5276 272.851 103.598C267.509 109.807 263.453 116.779 259.871 122.93L259.775 123.097C257.917 126.337 256.228 129.244 254.402 132.027C253.017 134.135 250.186 134.723 248.078 133.338C247.64 133.05 247.266 132.699 246.965 132.305C245.814 130.805 245.673 128.681 246.77 127.015C248.456 124.446 250.071 121.664 251.868 118.529L251.98 118.337C255.758 111.847 260.041 104.491 265.926 97.6457C282.421 78.4513 308.463 68.0816 337.375 69.1979C368.062 70.3654 395.95 84.0615 412.003 105.914C422.6 120.336 428.018 137.592 428.105 157.206C428.105 158.799 427.203 160.526 425.52 161.345C423.611 162.275 421.253 161.764 419.91 160.014H419.907Z" fill="#99EBFF"/>
<path d="M376.65 197.543C375.54 192.995 375.86 188.274 377.581 183.856C377.702 183.546 389.725 152.725 375.191 132.936C367.496 122.422 352.312 115.472 335.619 114.841C320.711 114.259 307.932 118.843 300.566 127.412C297.281 131.25 294.284 136.441 291.313 141.578C289.368 144.927 287.356 148.391 285.056 151.913C274.725 167.8 262.308 177.856 248.148 181.8C236.554 185.027 223.379 183.386 212.913 177.411C203.279 171.932 196.607 163.341 193.924 153.381C189.89 138.456 195.539 125.074 200.145 116.3C214.589 88.8853 237.392 65.4176 264.307 50.2437C265.443 49.5848 266.617 48.9419 267.826 48.2894C271.482 46.2839 275.266 44.2081 276.897 42.4585C278.957 40.2643 280.182 34.5901 278.541 27.9883C272.838 5.10592 257.357 -14.2037 234.945 -26.3837C209.235 -40.3773 177.928 -43.2624 151.188 -34.0986C145.171 -32.0483 138.531 -32.6113 132.972 -35.6371C130.756 -36.8397 129.937 -39.6161 131.143 -41.8327C132.348 -44.0461 135.122 -44.8649 137.338 -43.659C140.713 -41.8231 144.583 -41.4968 148.236 -42.7411C177.346 -52.7173 211.394 -49.5987 239.311 -34.4057C263.994 -20.991 281.074 0.388076 287.404 25.7845C289.653 34.8268 288.143 43.8275 283.563 48.7084C280.937 51.5168 276.702 53.8421 272.125 56.3497C271.04 56.9383 269.94 57.5396 268.833 58.1793C243.386 72.528 221.86 94.6843 208.224 120.557C204.338 127.962 199.54 139.176 202.739 151.004C204.805 158.674 210.041 165.276 217.433 169.479C225.835 174.277 236.4 175.595 245.695 173.004C257.648 169.674 268.315 160.904 277.402 146.929C279.577 143.6 281.528 140.241 283.473 136.892C286.582 131.512 289.793 125.95 293.632 121.466C302.831 110.763 318.264 105.022 335.968 105.713C355.376 106.445 373.189 114.781 382.554 127.53C400.054 151.356 386.642 185.785 386.076 187.208C385.049 189.834 384.861 192.662 385.523 195.381C386.121 197.831 384.617 200.303 382.164 200.898C379.714 201.496 377.248 199.993 376.647 197.543H376.65Z" fill="#99EBFF"/>
<path d="M398.234 178.313C401.147 165.525 403.943 141.22 389.921 122.121C378.946 107.13 358.437 97.422 336.329 96.5744C315.804 95.7908 297.716 102.69 286.707 115.503C282.434 120.487 279.123 126.183 275.618 132.219C273.75 135.433 271.821 138.76 269.735 141.959C261.803 154.171 253.138 161.45 243.242 164.208C236.256 166.149 228.295 165.151 221.949 161.54C207.872 153.528 208.806 139.093 216.313 124.814C229.133 100.473 249.38 79.6317 273.315 66.1339C274.412 65.5102 275.525 64.8992 276.638 64.2883C281.765 61.4704 286.608 58.8092 290.209 54.9678C298.298 46.3317 298.641 33.0834 296.261 23.5613C281.135 -37.1246 215.264 -64.9263 162.917 -55.8905C160.428 -55.4618 158.068 -57.1315 157.639 -59.6136C157.211 -62.0988 158.877 -64.4625 161.362 -64.8911C191.138 -70.028 223.389 -64.405 249.84 -49.4614C278.09 -33.5039 297.719 -8.35374 305.124 21.3511C308.898 36.4738 305.738 51.7501 296.872 61.2145C292.276 66.1147 286.563 69.2589 281.036 72.2943C279.958 72.886 278.88 73.4777 277.809 74.0855C255.374 86.7389 236.407 106.266 224.393 129.065C219.323 138.712 216.979 148.196 226.466 153.601C230.678 156 236.167 156.694 240.789 155.408C248.443 153.272 255.403 147.246 262.075 136.975C264.036 133.965 265.907 130.744 267.714 127.629C271.271 121.504 274.949 115.171 279.772 109.551C292.611 94.6105 313.351 86.5534 336.674 87.4458C361.498 88.3957 384.752 99.6066 397.28 116.712C413.452 138.738 410.398 166.031 407.135 180.341C406.575 182.801 404.129 184.339 401.666 183.779C399.209 183.223 397.664 180.773 398.227 178.313H398.234Z" fill="#99EBFF"/>
</g>
</svg>
