<svg width="541" height="124" viewBox="0 0 541 124" fill="none" xmlns="http://www.w3.org/2000/svg">
<g clip-path="url(#clip0_212_447)">
<path d="M-541 62C-541 37.6995 -521.301 18 -497 18H533C537.418 18 541 21.5817 541 26V98C541 102.418 537.418 106 533 106H-497C-521.301 106 -541 86.3005 -541 62V62Z" fill="url(#paint0_linear_212_447)"/>
<path d="M-497 19H533C536.866 19 540 22.134 540 26V98C540 101.866 536.866 105 533 105H-497C-520.748 105 -540 85.7482 -540 62C-540 38.2518 -520.748 19 -497 19Z" stroke="black" stroke-opacity="0.2" stroke-width="2"/>
<rect x="525" y="6" width="16" height="112" rx="8" fill="black"/>
<g filter="url(#filter0_i_212_447)">
<rect x="43" y="18" width="212" height="88" rx="40" fill="url(#paint1_linear_212_447)"/>
</g>
<rect x="44" y="19" width="210" height="86" rx="39" stroke="black" stroke-opacity="0.2" stroke-width="2"/>
<mask id="mask0_212_447" style="mask-type:alpha" maskUnits="userSpaceOnUse" x="46" y="18" width="206" height="88">
<rect x="46" y="18" width="206" height="88" rx="40" fill="#8098B0"/>
</mask>
<g mask="url(#mask0_212_447)">
<path d="M42 18H255V31H42V18Z" fill="black"/>
<path d="M42 93H255V106H42V93Z" fill="black"/>
</g>
<path d="M143.007 31L137.234 41L148.781 41L143.007 31ZM143.007 48.7211L144.007 48.7558L144.007 48.7384L144.007 48.7211L143.007 48.7211ZM142.007 40L142.007 48.7211L144.007 48.7211L144.007 40L142.007 40ZM142.008 48.6864C141.926 51.0456 142.459 54.5801 144.368 57.5598C146.315 60.5996 149.662 63 155 63V61C150.375 61 147.649 58.974 146.052 56.481C144.417 53.9279 143.935 50.8229 144.007 48.7558L142.008 48.6864Z" fill="#BAFAE0"/>
<path d="M143.007 93L137.234 83L148.781 83L143.007 93ZM143.007 74.4456L144.007 74.4086L144.007 74.4271L144.007 74.4456L143.007 74.4456ZM142.007 84L142.007 74.4456L144.007 74.4456L144.007 84L142.007 84ZM142.008 74.4826C141.925 72.2499 142.464 68.9132 144.384 66.1029C146.344 63.2352 149.691 61 155 61V63C150.346 63 147.62 64.9134 146.036 67.2313C144.412 69.6067 143.936 72.4928 144.007 74.4086L142.008 74.4826Z" fill="#BAFAE0"/>
</g>
<defs>
<filter id="filter0_i_212_447" x="43" y="18" width="212" height="88" filterUnits="userSpaceOnUse" color-interpolation-filters="sRGB">
<feFlood flood-opacity="0" result="BackgroundImageFix"/>
<feBlend mode="normal" in="SourceGraphic" in2="BackgroundImageFix" result="shape"/>
<feColorMatrix in="SourceAlpha" type="matrix" values="0 0 0 0 0 0 0 0 0 0 0 0 0 0 0 0 0 0 127 0" result="hardAlpha"/>
<feMorphology radius="16" operator="erode" in="SourceAlpha" result="effect1_innerShadow_212_447"/>
<feOffset/>
<feGaussianBlur stdDeviation="6"/>
<feComposite in2="hardAlpha" operator="arithmetic" k2="-1" k3="1"/>
<feColorMatrix type="matrix" values="0 0 0 0 0 0 0 0 0 0 0 0 0 0 0 0 0 0 0.25 0"/>
<feBlend mode="normal" in2="shape" result="effect1_innerShadow_212_447"/>
</filter>
<linearGradient id="paint0_linear_212_447" x1="-108.734" y1="-9" x2="-108.734" y2="153" gradientUnits="userSpaceOnUse">
<stop stop-color="#969596"/>
<stop offset="0.29" stop-color="#FCFCFC"/>
<stop offset="0.515" stop-color="#7A7A7B"/>
<stop offset="0.775" stop-color="#404142"/>
<stop offset="1" stop-color="#838283"/>
</linearGradient>
<linearGradient id="paint1_linear_212_447" x1="127.695" y1="18" x2="127.695" y2="106" gradientUnits="userSpaceOnUse">
<stop stop-color="#909192"/>
<stop offset="0.48" stop-color="#505050"/>
<stop offset="1" stop-color="#A8A9AB"/>
</linearGradient>
<clipPath id="clip0_212_447">
<rect width="541" height="124" fill="white"/>
</clipPath>
</defs>
</svg>
