<svg width="541" height="124" viewBox="0 0 541 124" fill="none" xmlns="http://www.w3.org/2000/svg">
<g clip-path="url(#clip0_212_445)">
<path d="M0 62C0 37.6995 19.6995 18 44 18H1074C1078.42 18 1082 21.5817 1082 26V98C1082 102.418 1078.42 106 1074 106H44C19.6995 106 0 86.3005 0 62V62Z" fill="url(#paint0_linear_212_445)"/>
<path d="M44 19H1074C1077.87 19 1081 22.134 1081 26V98C1081 101.866 1077.87 105 1074 105H44C20.2518 105 1 85.7482 1 62C1 38.2518 20.2518 19 44 19Z" stroke="black" stroke-opacity="0.2" stroke-width="2"/>
<rect x="87" y="30" width="65" height="64" rx="32" fill="url(#paint1_radial_212_445)"/>
<rect x="88" y="31" width="63" height="62" rx="31" stroke="black" stroke-opacity="0.2" stroke-width="2"/>
</g>
<defs>
<linearGradient id="paint0_linear_212_445" x1="432.266" y1="-9" x2="432.266" y2="153" gradientUnits="userSpaceOnUse">
<stop stop-color="#969596"/>
<stop offset="0.29" stop-color="#FCFCFC"/>
<stop offset="0.515" stop-color="#7A7A7B"/>
<stop offset="0.775" stop-color="#404142"/>
<stop offset="1" stop-color="#838283"/>
</linearGradient>
<radialGradient id="paint1_radial_212_445" cx="0" cy="0" r="1" gradientUnits="userSpaceOnUse" gradientTransform="translate(93.5 62) scale(58.5 59.4141)">
<stop stop-color="#5E6061"/>
<stop offset="0.44" stop-color="#505354"/>
<stop offset="1" stop-color="#0D0E0F"/>
</radialGradient>
<clipPath id="clip0_212_445">
<rect width="541" height="124" fill="white"/>
</clipPath>
</defs>
</svg>
