<svg width="541" height="124" viewBox="0 0 541 124" fill="none" xmlns="http://www.w3.org/2000/svg">
<g clip-path="url(#clip0_212_442)">
<path d="M0 62C0 37.6995 19.6995 18 44 18H1074C1078.42 18 1082 21.5817 1082 26V97C1082 101.971 1077.97 106 1073 106H44C19.6995 106 0 86.3005 0 62V62Z" fill="url(#paint0_linear_212_442)"/>
<path d="M44 19H1074C1077.87 19 1081 22.134 1081 26V97C1081 101.418 1077.42 105 1073 105H44C20.2518 105 1 85.7482 1 62C1 38.2518 20.2518 19 44 19Z" stroke="black" stroke-opacity="0.2" stroke-width="2"/>
<path d="M257.8 52.2102H248.078C245.678 52.2102 243.751 54.1546 243.751 56.5369C243.751 58.9192 245.696 60.8636 248.078 60.8636H255.172C258.203 60.8636 258.326 63.2459 258.326 63.5436V52.7357C258.326 52.4554 258.098 52.2102 257.8 52.2102Z" fill="black"/>
<path d="M242.526 72.0744H252.247C254.647 72.0744 256.574 70.13 256.574 67.7477C256.574 65.3654 254.63 63.4211 252.247 63.4211H245.153C242.123 63.4211 242 61.0388 242 60.741V71.5489C242 71.8292 242.228 72.0744 242.526 72.0744Z" fill="black"/>
<path d="M353.495 56.9923C352.111 56.9923 351.008 55.8712 351.008 54.4874C351.008 53.1036 352.111 52 353.495 52C354.879 52 356 53.1036 356 54.4874C356 55.8712 354.879 56.9923 353.495 56.9923ZM355.755 54.4874C355.755 53.2437 354.739 52.2277 353.495 52.2277C352.252 52.2277 351.236 53.2437 351.236 54.4874C351.236 55.7311 352.252 56.7471 353.495 56.7471C354.739 56.7471 355.755 55.7311 355.755 54.4874ZM353.863 54.7852C353.863 54.7852 353.758 54.7852 353.74 54.7852L354.511 55.8187C354.511 55.8187 354.511 55.8712 354.494 55.8712H354.301C354.301 55.8712 354.248 55.8712 354.248 55.8362L353.46 54.8027H352.777V55.8362C352.777 55.8362 352.759 55.8712 352.742 55.8712H352.584C352.584 55.8712 352.549 55.8712 352.549 55.8362V53.2087C352.549 53.2087 352.567 53.1736 352.584 53.1736H353.74C354.178 53.1736 354.564 53.5415 354.564 53.9969C354.564 54.4173 354.266 54.7502 353.863 54.7852ZM353.705 53.4014H352.777V54.61H353.705C354.056 54.61 354.336 54.3648 354.336 54.0144C354.336 53.6641 354.038 53.4189 353.705 53.4189" fill="black"/>
<path d="M272.462 72.0743C269.8 72.0743 267.855 71.2335 265.718 69.5168C265.56 69.3767 265.56 69.2541 265.666 69.0789L266.576 67.8177C266.682 67.6601 266.839 67.625 266.979 67.7301C268.836 69.1315 270.518 69.8672 272.532 69.8847C274.985 69.8847 277.192 68.8687 277.192 66.5915C277.192 64.3143 275.23 63.6487 272.147 62.983C268.889 62.2648 265.701 60.881 265.701 57.29C265.701 53.6991 268.889 52.1926 272.567 52.1926C274.967 52.1926 276.806 52.8758 278.856 54.3472C279.048 54.4523 279.048 54.61 278.943 54.7501L278.05 56.0113C277.945 56.169 277.787 56.169 277.612 56.0639C275.965 54.9253 274.249 54.3647 272.375 54.3122C269.817 54.3122 268.013 55.3632 268.013 57.3251C268.013 59.287 269.905 60.1103 272.725 60.7584C276.316 61.5642 279.486 62.7028 279.486 66.5215C279.486 70.3401 276.228 72.0568 272.427 72.0568" fill="black"/>
<path d="M283.655 55.2582C282.902 55.2582 282.307 54.6976 282.307 53.9444C282.307 53.1912 282.902 52.6306 283.655 52.6306C284.409 52.6306 284.969 53.1736 284.969 53.9444C284.969 54.7151 284.409 55.2582 283.655 55.2582ZM282.832 71.7766C282.622 71.7766 282.517 71.6715 282.517 71.4788V58.166C282.517 57.9733 282.622 57.8507 282.832 57.8507H284.426C284.619 57.8507 284.724 57.9908 284.724 58.166V71.4788C284.724 71.6715 284.619 71.7766 284.426 71.7766H282.832Z" fill="black"/>
<path d="M292.431 72.0744C289.839 72.0744 288.367 70.3403 288.367 67.1172V52.8058C288.367 52.6132 288.472 52.5081 288.682 52.5081H290.277C290.469 52.5081 290.574 52.6132 290.574 52.8058V67.1522C290.574 69.2542 291.31 70.06 292.676 70.06C293.009 70.06 293.465 70.025 293.885 69.9724C294.095 69.9724 294.2 70.0775 294.2 70.2702V71.6365C294.2 71.8292 294.095 71.9693 293.938 71.9869C293.482 72.0394 292.904 72.0744 292.431 72.0744Z" fill="black"/>
<path d="M305.376 71.7765C305.219 71.7765 305.079 71.724 304.973 71.5838L299.859 65.3478L298.492 66.6616V71.4612C298.492 71.6539 298.387 71.759 298.159 71.759H296.565C296.373 71.759 296.268 71.6539 296.268 71.4612V52.7707C296.268 52.578 296.373 52.4729 296.565 52.4729H298.159C298.37 52.4729 298.492 52.578 298.492 52.7707V63.929L304.588 57.9732C304.693 57.8331 304.833 57.8156 304.973 57.8156H306.935C307.181 57.8156 307.251 58.0082 307.076 58.2009L301.365 63.8414L307.566 71.3912C307.724 71.6014 307.654 71.7765 307.408 71.7765H305.411H305.376Z" fill="black"/>
<path d="M314.275 57.5529C317.586 57.5529 319.635 59.3046 319.635 62.7905V70.8833C319.635 71.0409 319.547 71.1811 319.39 71.2336C318.129 71.6891 316.202 72.0919 314.187 72.0919C311.174 72.0919 308.389 70.8833 308.389 67.6777C308.389 64.8224 310.736 63.386 314.187 63.386C315.291 63.386 316.499 63.5437 317.428 63.7014V62.843C317.428 60.6534 316.535 59.5498 314.187 59.5498C312.681 59.5498 311.297 59.9878 310.351 60.5483C310.193 60.6534 310.053 60.6359 309.948 60.4607L309.16 59.3221C309.072 59.1645 309.055 59.0594 309.16 58.9368C310.421 58.0784 312.173 57.5354 314.257 57.5354M314.187 70.1125C315.396 70.1125 316.605 69.8673 317.428 69.6221V65.5757C316.57 65.418 315.291 65.2604 314.187 65.2604C311.735 65.2604 310.596 66.1712 310.596 67.6602C310.596 69.2717 312.103 70.1125 314.187 70.1125Z" fill="black"/>
<path d="M323.436 71.7766C323.244 71.7766 323.139 71.6715 323.139 71.4789V58.9718C323.139 58.8141 323.191 58.674 323.349 58.5864C324.89 57.9383 326.66 57.5354 328.516 57.5354C332.125 57.5354 334.577 59.2345 334.577 63.351V71.4613C334.577 71.654 334.472 71.7591 334.244 71.7591H332.65C332.458 71.7591 332.353 71.654 332.353 71.4613V63.4036C332.353 60.6009 330.916 59.5148 328.499 59.5148C327.36 59.5148 326.152 59.725 325.311 60.0053V71.4613C325.311 71.654 325.206 71.7591 324.995 71.7591H323.401L323.436 71.7766Z" fill="black"/>
<path d="M338.448 71.7766C338.255 71.7766 338.15 71.6715 338.15 71.4789V58.9718C338.15 58.8141 338.203 58.674 338.361 58.5864C339.902 57.9383 341.671 57.5354 343.528 57.5354C347.137 57.5354 349.589 59.2345 349.589 63.351V71.4613C349.589 71.654 349.484 71.7591 349.256 71.7591H347.662C347.469 71.7591 347.364 71.654 347.364 71.4613V63.4036C347.364 60.6009 345.945 59.5148 343.511 59.5148C342.372 59.5148 341.163 59.725 340.322 60.0053V71.4613C340.322 71.654 340.217 71.7591 340.007 71.7591H338.413L338.448 71.7766Z" fill="black"/>
<rect x="87" y="30" width="104" height="64" rx="32" fill="url(#paint1_radial_212_442)"/>
<rect x="88" y="31" width="102" height="62" rx="31" stroke="black" stroke-opacity="0.2" stroke-width="2"/>
</g>
<defs>
<linearGradient id="paint0_linear_212_442" x1="432.266" y1="-9" x2="432.266" y2="153" gradientUnits="userSpaceOnUse">
<stop stop-color="#969596"/>
<stop offset="0.29" stop-color="#FCFCFC"/>
<stop offset="0.515" stop-color="#7A7A7B"/>
<stop offset="0.775" stop-color="#404142"/>
<stop offset="1" stop-color="#838283"/>
</linearGradient>
<radialGradient id="paint1_radial_212_442" cx="0" cy="0" r="1" gradientUnits="userSpaceOnUse" gradientTransform="translate(97.4 62) scale(93.6 59.4141)">
<stop stop-color="#5E6061"/>
<stop offset="0.44" stop-color="#505354"/>
<stop offset="1" stop-color="#0D0E0F"/>
</radialGradient>
<clipPath id="clip0_212_442">
<rect width="541" height="124" fill="white"/>
</clipPath>
</defs>
</svg>
